<?xml version="1.0" encoding="utf-8"?>
<!-- Generator: Adobe Illustrator 16.0.0, SVG Export Plug-In . SVG Version: 6.00 Build 0)  -->
<!DOCTYPE svg PUBLIC "-//W3C//DTD SVG 1.1//EN" "http://www.w3.org/Graphics/SVG/1.1/DTD/svg11.dtd">
<svg version="1.1" id="Laag_1" xmlns="http://www.w3.org/2000/svg" xmlns:xlink="http://www.w3.org/1999/xlink" x="0px" y="0px"
	 width="700px" height="500px" viewBox="0 0 700 500" enable-background="new 0 0 700 500" xml:space="preserve">
<rect fill="#E41E20" width="700" height="500"/>
<path d="M485.875,304.235c-4.396-5.169-9.297-5.53-15.438,1.062c-6.433,0.196-10.926,0.311-17.375,0.531
	c3.454-2.919,5.295-5.151,8.75-8.062c5.311,1.687,10.5,1.114,12.75-4.812c1.724-2.003,3.636-3.181,8.031-3.344
	c-3.045-2.542-5.576-3.472-11.062-0.938c-8.098-3.639-8.772,1.524-10.219,4.906c-5.487,3.601-9.92,6.653-15.406,10.25
	c-11.184-3.263-20.263-5.091-31.438-8.345c2.426-2.509,4.855-4.794,7.281-7.312c0.636-2.124-0.481-3.205-2.312-3.531
	c-18.072-3.661-28.401-10.793-34.688-28.906c-2.631-7.579,3.044-9.829,5-5.188c2.71,6.432,5.671,13.502,13.781,18.969
	c2.803,1.891,11.123,0.355,6.219-4.25c-5.128-4.08-7.308-5.868-9.844-15.843c0-5.088,5.289-7.354,8.25-2.5
	c3.134,9.958,3.472,14.255,9.156,20.656c4.32,4.865,9.969,8.117,12.75,8.062c5.054-0.098,10.117-5.401,3.375-9.25
	c-9.869-3.863-13.491-9.159-14.938-14.188c-1.591-8.779,0.141-13.04,5.562-8.718c7.693,8.531,22.362,24.451,30.031,31.843
	c8.625,6.461,18.487,6.666,26.375,0.125c4.491-5.06,2.891-10.54-4.156-9.344c-15.895,1.315-27.962-6.422-41.156-27.281
	c-2.614-4.745-3.327-11.488,2.406-6.469c6.589,8.71,16.186,16.144,25.125,19.312c8.938,3.17,17.22,2.074,19.219-1.343
	c3.314-5.669,2.562-11.905-3.438-9.844c-4.919,1.69-11.868,2.128-19.094-0.625s-14.727-8.698-22.719-18.781
	c-2.723-5.711-1.818-10.535,3.688-7.594c13.079,10.852,29.933,19.636,38.562,14.344c6.32-3.876,6.441-13.782-1.594-13.156
	c-16.204,2.19-22.331-1.348-37.875-14.781c-3.558-2.584-3.303-9.112,2.312-4.938c13.099,8.233,30.952,11.46,37.969,7.156
	c6.312-3.872,5.377-15.66-5.25-11.469c-8.489,5.05-17.898,4.9-36.719-8.25c-4.743-3.838-1.208-8.89,2.688-6.719
	c15.134,8.437,37.175,12.034,42.938-5.094c2.21-6.569-1.808-10.394-7.75-5.844c-12.986,11.747-27.732,5.968-35.969,0.062
	c-2.156-0.084-6.728-8.264,0.906-7c19.712,4.421,39.197,0.596,42.719-13.062c2.078-4.43-1.969-12.25-9.156-5.688
	c-9.477,9.141-19.514,9.455-32.094,9.375c-6.434-1.3-6.486-8.236-1.125-9.25c9.95,0.222,19.786-4.042,27.656-8.375
	c7.667-4.298,14.058-10.362,16.062-18.75c1.241-7.515-6.145-15.486-10.625-7.531c-6.58,11.681-21.195,22.651-37.406,24.625
	c-0.838-1.38-2.986-4.925-5.594-3.938c-9.543,3.613-22.732,9.684-33.594,15.688c-2.358,1.303,0.41,7.61,0.938,10.031
	c0.541,6.172-1.359,10.113-3.312,12.406c-1.954,2.293-7.282,3.8-10.281,3c-6-1.601-9.227-6.807-8.219-16.062
	c0.312-0.979,0.569-5.426,5.469-11.219c2.461-2.911,5.908-6.626,11.375-9.594c5.467-2.968,13.735-4.614,23.688-6.781
	c6.056-1.188,9.132-3.468,9.5-5.906c-2.898,0.671-7.654,3.132-10.781,2.531c-3.076-0.591-4.629-2.076-6-2.938
	c2.283-0.478,6.48,0.066,10.219,0.062s7.036-0.792,9.25-1.156c4.601-0.755,8.252-2.633,10.438-6.844
	c0.945-4.534-2.088-5.355-4.938-2.438c-2.417,2.475-2.901,3.487-4.438,4.562c-1.537,1.075-4.122,2.114-5.969,2.438
	c-3.747,0.655-7.439,1.393-12.219,0.25c0.944-1.183,3.07-3.096,5-4.281c1.93-1.185,3.819-1.768,5.625-1.469
	c1.205,0.202,2.773,1.275,4.062,3.25c0.796-4.977-0.614-10.571-14.156-8.25c0.181-3.731-7.889-5.363-12.75-5.281l-0.006-0.007
	c-2.753,0.046-8.401,1.661-12.468,3.562c-6.434,1.949-12.826,3.375-20.312,3.906c4.323,3.631,5.172,3.839,9.531,6.938
	c-6.601,2.4-11.712,7.376-14,10.625c5.765,0.276,7.668-0.209,9.625,0.625c-8.03,2.326-11.665,3.688-15.907,7.937
	c1.502,0.273,3.734,0.674,4.688,1.031c0.986,0.37,0.578,0.876-0.094,1.594c-1.84,1.151-8.874,9.44-10.963,11.37
	c-2.088-1.93-9.124-10.219-10.963-11.37c-0.672-0.717-1.08-1.224-0.094-1.594c0.953-0.357,3.186-0.758,4.688-1.031
	c-4.242-4.249-7.877-5.611-15.907-7.937c1.957-0.833,3.86-0.348,9.625-0.625c-2.288-3.249-7.399-8.225-14-10.625
	c4.359-3.099,5.208-3.306,9.531-6.938c-7.486-0.531-13.879-1.957-20.312-3.906c-4.066-1.902-9.715-3.516-12.468-3.562l-0.005,0.007
	c-4.861-0.082-12.931,1.55-12.75,5.281c-13.542-2.321-14.952,3.273-14.156,8.25c1.288-1.975,2.857-3.048,4.062-3.25
	c1.806-0.299,3.695,0.284,5.625,1.469c1.93,1.186,4.055,3.098,5,4.281c-4.78,1.143-8.472,0.405-12.219-0.25
	c-1.847-0.323-4.432-1.362-5.969-2.438s-2.021-2.087-4.438-4.562c-2.85-2.918-5.883-2.096-4.938,2.438
	c2.186,4.211,5.836,6.088,10.438,6.844c2.214,0.364,5.512,1.152,9.25,1.156c3.738,0.004,7.935-0.54,10.219-0.062
	c-1.372,0.861-2.924,2.346-6,2.938c-3.128,0.601-7.883-1.86-10.781-2.531c0.368,2.438,3.444,4.718,9.5,5.906
	c9.951,2.167,18.221,3.813,23.687,6.781c5.467,2.967,8.914,6.683,11.375,9.594c4.899,5.793,5.156,10.24,5.469,11.219
	c1.008,9.256-2.219,14.462-8.219,16.062c-2.999,0.8-8.327-0.707-10.281-3c-1.954-2.293-3.854-6.234-3.312-12.406
	c0.526-2.421,3.295-8.728,0.938-10.031c-10.862-6.003-24.051-12.074-33.594-15.688c-2.608-0.987-4.757,2.558-5.594,3.938
	c-16.211-1.974-30.827-12.944-37.406-24.625c-4.481-7.955-11.867,0.017-10.625,7.531c2.004,8.388,8.395,14.452,16.062,18.75
	c7.87,4.333,17.706,8.597,27.656,8.375c5.36,1.014,5.308,7.95-1.125,9.25c-12.581,0.08-22.618-0.234-32.094-9.375
	c-7.188-6.562-11.234,1.257-9.156,5.688c3.521,13.658,23.006,17.483,42.719,13.062c7.633-1.264,3.062,6.916,0.906,7
	c-8.237,5.906-22.983,11.684-35.969-0.062c-5.942-4.55-9.96-0.725-7.75,5.844c5.762,17.127,27.804,13.53,42.938,5.094
	c3.896-2.171,7.431,2.881,2.688,6.719c-18.82,13.15-28.229,13.3-36.718,8.25c-10.627-4.191-11.562,7.597-5.25,11.469
	c7.016,4.304,24.87,1.077,37.969-7.156c5.615-4.175,5.869,2.354,2.312,4.938c-15.544,13.434-21.671,16.971-37.875,14.781
	c-8.035-0.626-7.915,9.28-1.594,13.156c8.63,5.292,25.482-3.492,38.562-14.344c5.505-2.941,6.409,1.883,3.688,7.594
	c-7.992,10.083-15.493,16.028-22.719,18.781s-14.176,2.314-19.094,0.625c-6-2.062-6.753,4.174-3.438,9.844
	c1.998,3.417,10.28,4.513,19.219,1.343c8.939-3.168,18.536-10.602,25.125-19.312c5.733-5.019,5.02,1.724,2.406,6.469
	c-13.195,20.859-25.262,28.596-41.156,27.281c-7.048-1.196-8.648,4.284-4.156,9.344c7.887,6.541,17.749,6.336,26.375-0.125
	c7.668-7.393,22.338-23.312,30.031-31.843c5.421-4.322,7.153-0.061,5.562,8.718c-1.447,5.028-5.068,10.324-14.938,14.188
	c-6.742,3.849-1.679,9.152,3.375,9.25c2.781,0.055,8.429-3.197,12.75-8.062c5.684-6.4,6.022-10.697,9.156-20.656
	c2.961-4.854,8.25-2.588,8.25,2.5c-2.537,9.975-4.716,11.763-9.844,15.843c-4.905,4.605,3.415,6.141,6.219,4.25
	c8.11-5.467,11.071-12.537,13.781-18.969c1.956-4.641,7.631-2.391,5,5.188c-6.286,18.113-16.615,25.245-34.687,28.906
	c-1.832,0.326-2.949,1.407-2.312,3.531c2.425,2.519,4.855,4.804,7.281,7.312c-11.175,3.254-20.254,5.082-31.438,8.345
	c-5.487-3.597-9.919-6.649-15.406-10.25c-1.447-3.382-2.121-8.545-10.219-4.906c-5.487-2.534-8.018-1.604-11.062,0.938
	c4.396,0.163,6.308,1.341,8.031,3.344c2.25,5.927,7.439,6.499,12.75,4.812c3.456,2.911,5.295,5.144,8.75,8.062
	c-6.449-0.221-10.942-0.335-17.375-0.531c-6.141-6.593-11.042-6.231-15.438-1.062c-3.35,0.515-4.77,0.587-7.062,4.656
	c3.605-1.479,5.874-1.923,7.438-0.312c6.529,3.784,10.794,2.939,14.031,0c6.299,0.385,11.975,0.711,18.281,1.125
	c-2.316,1.969-5.496,3.014-7.812,5c-9.46-2.707-14.398,0.936-16.062,8.656c-1.268,3.115-1.861,6.323-1.312,9.656
	c0.916-3.049,2.388-5.67,5.094-7.312c8.432,2.142,11.603-1.301,12.062-6.344c4.064-3.316,10.194-4.048,14.25-7.406
	c4.743,1.518,7.036,2.459,11.812,3.969c1.698,5.16,5.542,7.203,11.781,5.875c7.428,0.232,6.117,3.28,6.719,5.719
	c1.974-3.502,1.919-6.906-2.656-10c-1.665-4.523-5.353-6.58-10.188-3.969c-4.551-1.293-5.747-3.149-10.281-4.438
	c11.468-3.656,19.603-4.479,31.062-8.125c2.869,2.705,5.142,4.648,8.031,7.062c1.523,0.908,2.981,1.137,3.875,0
	c7.181-10.394,10.388-19.553,17.062-26.406c2.55-2.836,5.771-6.662,9.344-7.594c1.786-0.467,3.977-0.182,5.375,1.344
	s2.497,4.336,2.031,8.531c-0.668,6.021-2.123,7.922-3.812,11.531c-1.688,3.609-3.753,5.829-5.875,8.594
	c-4.243,5.527-9.842,8.745-13.156,10.906c-6.627,4.321-9.431,2.43-14.562,2.156c-6.633,0.744-8.398,3.975-2.969,8.438
	c5.075,2.641,9.636,2.966,13.343,2.281c3.184-0.59,6.908-4.697,9.562-6.906c2.988-3.452,7.941,0.641,4.562,4.656
	c-6.139,7.294-12.273,12.104-19.843,12c-7.955,1.07-6.467,5.539-1.188,7.719c9.501,3.921,18.08-3.424,22.437-8.25
	c3.362-3.679,5.751-3.822,5.156,1.875c-3.338,10.312-7.898,14.297-15.344,14.812c-6.038-0.562-6.104,4.1-1.688,7.25
	c10.061,6.963,17.346-4.896,20.75-12.062c2.426-6.467,6.146-3.392,6.531,1.938c0.051,7.119-3.166,12.932-11.781,20.219
	c6.592,10.501,14.275,21.182,20.875,31.718c6.6-10.536,14.283-21.217,20.875-31.718c-8.615-7.287-11.832-13.1-11.781-20.219
	c0.385-5.329,4.105-8.404,6.531-1.938c3.404,7.167,10.689,19.025,20.75,12.062c4.416-3.15,4.351-7.812-1.688-7.25
	c-7.445-0.516-12.006-4.5-15.344-14.812c-0.595-5.697,1.794-5.554,5.156-1.875c4.357,4.826,12.936,12.171,22.438,8.25
	c5.279-2.18,6.767-6.648-1.188-7.719c-7.57,0.104-13.705-4.706-19.844-12c-3.379-4.016,1.574-8.108,4.562-4.656
	c2.654,2.209,6.379,6.316,9.562,6.906c3.707,0.685,8.269,0.359,13.344-2.281c5.429-4.463,3.664-7.693-2.969-8.438
	c-5.132,0.273-7.936,2.165-14.562-2.156c-3.314-2.161-8.913-5.379-13.156-10.906c-2.122-2.765-4.187-4.984-5.875-8.594
	c-1.689-3.609-3.145-5.511-3.812-11.531c-0.466-4.195,0.633-7.006,2.031-8.531s3.589-1.811,5.375-1.344
	c3.572,0.932,6.794,4.758,9.344,7.594c6.675,6.854,9.882,16.013,17.062,26.406c0.895,1.137,2.352,0.908,3.875,0
	c2.889-2.414,5.162-4.357,8.031-7.062c11.459,3.646,19.594,4.469,31.062,8.125c-4.534,1.288-5.73,3.145-10.281,4.438
	c-4.835-2.611-8.523-0.555-10.188,3.969c-4.575,3.094-4.631,6.498-2.656,10c0.602-2.438-0.709-5.486,6.719-5.719
	c6.24,1.328,10.083-0.715,11.781-5.875c4.776-1.51,7.069-2.451,11.812-3.969c4.057,3.358,10.186,4.09,14.25,7.406
	c0.46,5.043,3.63,8.485,12.062,6.344c2.706,1.643,4.178,4.264,5.094,7.312c0.549-3.333-0.045-6.541-1.312-9.656
	c-1.665-7.721-6.603-11.363-16.062-8.656c-2.316-1.986-5.496-3.031-7.812-5c6.307-0.414,11.982-0.74,18.281-1.125
	c3.237,2.939,7.502,3.784,14.031,0c1.564-1.611,3.832-1.168,7.438,0.312C490.645,304.822,489.225,304.75,485.875,304.235z
	 M399.187,105.923c3.94,0,6.438,1.231,6.438,2.875c0,1.673-2.497,3.156-6.438,3.156c-3.956,0-6.406-1.359-6.406-3.031
	C392.78,107.279,395.23,105.923,399.187,105.923z M300.813,111.954c-3.939,0-6.438-1.483-6.438-3.156
	c0.001-1.644,2.498-2.875,6.438-2.875c3.957,0,6.407,1.356,6.407,3C307.22,110.595,304.77,111.954,300.813,111.954z"/>
</svg>
