<?xml version="1.0" encoding="utf-8"?>
<!-- Generator: Adobe Illustrator 16.0.0, SVG Export Plug-In . SVG Version: 6.00 Build 0)  -->
<!DOCTYPE svg PUBLIC "-//W3C//DTD SVG 1.1//EN" "http://www.w3.org/Graphics/SVG/1.1/DTD/svg11.dtd">
<svg version="1.1" id="Laag_1" xmlns="http://www.w3.org/2000/svg" xmlns:xlink="http://www.w3.org/1999/xlink" x="0px" y="0px"
	 width="900px" height="450px" viewBox="0 0 900 450" enable-background="new 0 0 900 450" xml:space="preserve">
<title>Flag of Belarus</title>
<rect fill="#C8313E" width="900" height="450"/>
<rect y="300" fill="#4AA657" width="900" height="150"/>
<rect fill="#FFFFFF" width="100" height="450"/>
<g id="h">
	<g id="q" transform="scale(5.304347826,9)">
		<path fill="#C8313E" d="M3.279,0h2.459v0.82h0.82v0.82h0.82v0.82h0.82v0.82h0.82v0.82h-0.82v0.82h-0.82v0.82h-0.82v0.82h-0.82
			v0.82h-0.82v0.82h-0.82v-0.82h-0.82v-0.82h-0.82v-0.82h-0.82v-0.82H0.82v-0.82H0v-0.82h0.82v-0.82h0.82v-0.82h0.82V0.82h0.82V0z
			 M4.098,1.639h0.82v0.82h0.82v0.82h0.82v0.82h-0.82v0.82h-0.82v0.82h-0.82v-0.82h-0.82v-0.82h-0.82v-0.82h0.82v-0.82h0.82V1.639z
			 M4.098,3.279h0.82v0.82h-0.82V3.279z M0,0.82h0.82v0.82H0V0.82z M0,5.738h0.82v0.82H0V5.738z M9.016,0h0.492v1.639H9.016V0z
			 M9.016,5.738h0.492v1.639H9.016V5.738z M1.639,7.377h0.82v0.82h0.82v0.82h0.82v0.82h-0.82v0.82h-0.82v0.82h-0.82v-0.82H0.82
			v-0.82H0v-0.82h0.82v-0.82h0.82V7.377z M1.639,9.016h0.82v0.82h-0.82V9.016z M6.557,7.377h0.82v0.82h0.82v0.82h0.82v0.82h-0.82
			v0.82h-0.82v0.82h-0.82v-0.82h-0.82v-0.82h-0.82v-0.82h0.82v-0.82h0.82V7.377z M6.557,9.016h0.82v0.82h-0.82V9.016z M0,12.295
			h0.82v0.82H0V12.295z M9.016,11.475h0.492v1.639H9.016V11.475z"/>
		<path fill="#C8313E" d="M0,14.754h0.82v-0.82h0.82v-0.82h0.82v-0.82h0.82v-0.82h0.82v-0.82h0.82v0.82h0.82v0.82h0.82v0.82h0.82
			v0.82h0.82v0.82h0.82v0.82h0.492v3.279H9.016v0.82h-0.82v0.82h-0.82v0.82h-0.82v0.82h-0.82v0.82h-0.82v2.131H3.279V24.59h-0.82
			v-0.82h-0.82v-0.82H0.82v-0.82H0v-2.459h0.82v0.82h0.82v0.82h0.82v0.82h0.82v-0.82h0.82v-0.82h0.82v-0.82h0.82v-0.82h0.82v-0.82
			h0.82v-0.82h-0.82v-0.82h-0.82v-0.82H3.279v0.82h1.639v0.82h-0.82v0.82h-0.82v0.82h-0.82v-0.82h-0.82v-0.82H0.82v-0.82H0V14.754z
			 M0,18.033h0.82v0.82H0V18.033z M9.016,20.492h0.492v0.82H9.016V20.492z M7.377,22.131h0.82v0.82h0.82v0.82h0.492v1.312H9.016
			V24.59h-0.82v-0.82h-0.82V22.131z M5.738,24.59h0.82v0.492h-0.82V24.59z"/>
	</g>
	<g transform="translate(122,0) scale(-1,1)">
		<g id="q_1_" transform="scale(5.304347826,9)">
			<path fill="#C8313E" d="M15.574,0h-2.459v0.82h-0.82v0.82h-0.82v0.82h-0.82v0.82h-0.82v0.82h0.82v0.82h0.82v0.82h0.82v0.82h0.82
				v0.82h0.82v0.82h0.82v-0.82h0.82v-0.82h0.82v-0.82h0.82v-0.82h0.82v-0.82h0.82v-0.82h-0.82v-0.82h-0.82v-0.82h-0.82V0.82h-0.82V0
				z M18.852,0.82h-0.82v0.82h0.82V0.82z M18.852,5.738h-0.82v0.82h0.82V5.738z M9.836,0H9.344v1.639h0.492V0z M9.836,5.738H9.344
				v1.639h0.492V5.738z M17.213,7.377h-0.82v0.82h-0.82v0.82h-0.82v0.82h0.82v0.82h0.82v0.82h0.82v-0.82h0.82v-0.82h0.82v-0.82
				h-0.82v-0.82h-0.82V7.377z M12.295,7.377h-0.82v0.82h-0.82v0.82h-0.82v0.82h0.82v0.82h0.82v0.82h0.82v-0.82h0.82v-0.82h0.82
				v-0.82h-0.82v-0.82h-0.82V7.377z M18.852,12.295h-0.82v0.82h0.82V12.295z M9.836,11.475H9.344v1.639h0.492V11.475z"/>
			<path fill="#C8313E" d="M18.852,14.754h-0.82v-0.82h-0.82v-0.82h-0.82v-0.82h-0.82v-0.82h-0.82v-0.82h-0.82v0.82h-0.82v0.82
				h-0.82v0.82h-0.82v0.82h-0.82v0.82h-0.82v0.82H9.344v3.279h0.492v0.82h0.82v0.82h0.82v0.82h0.82v0.82h0.82v0.82h0.82v2.131h1.639
				V24.59h0.82v-0.82h0.82v-0.82h0.82v-0.82h0.82v-2.459h-0.82v0.82h-0.82v0.82h-0.82v0.82h-0.82v-0.82h-0.82v-0.82h-0.82v-0.82
				h-0.82v-0.82h-0.82v-0.82h-0.82v-0.82h0.82v-0.82h0.82v-0.82h2.459v0.82h-1.639v0.82h0.82v0.82h0.82v0.82h0.82v-0.82h0.82v-0.82
				h0.82v-0.82h0.82V14.754z M18.852,18.033h-0.82v0.82h0.82V18.033z M9.836,20.492H9.344v0.82h0.492V20.492z M11.475,22.131h-0.82
				v0.82h-0.82v0.82H9.344v1.312h0.492V24.59h0.82v-0.82h0.82V22.131z M13.115,24.59h-0.82v0.492h0.82V24.59z"/>
		</g>
	</g>
</g>
<g>
	<g id="h_1_">
		<g id="q_2_" transform="scale(5.304347826,9)">
			<path fill="#C8313E" d="M3.279,50h2.459v-0.82h0.82v-0.82h0.82v-0.82h0.82v-0.82h0.82v-0.82h-0.82v-0.82h-0.82v-0.82h-0.82v-0.82
				h-0.82v-0.82h-0.82v-0.82h-0.82v0.82h-0.82v0.82h-0.82v0.82h-0.82v0.82H0.82v0.82H0v0.82h0.82v0.82h0.82v0.82h0.82v0.82h0.82V50z
				 M4.098,48.361h0.82v-0.82h0.82v-0.82h0.82v-0.82h-0.82v-0.82h-0.82v-0.82h-0.82v0.82h-0.82v0.82h-0.82v0.82h0.82v0.82h0.82
				V48.361z M4.098,46.721h0.82v-0.82h-0.82V46.721z M0,49.18h0.82v-0.82H0V49.18z M0,44.262h0.82v-0.82H0V44.262z M9.016,50h0.492
				v-1.639H9.016V50z M9.016,44.262h0.492v-1.639H9.016V44.262z M1.639,42.623h0.82v-0.82h0.82v-0.82h0.82v-0.82h-0.82v-0.82h-0.82
				v-0.82h-0.82v0.82H0.82v0.82H0v0.82h0.82v0.82h0.82V42.623z M1.639,40.984h0.82v-0.82h-0.82V40.984z M6.557,42.623h0.82v-0.82
				h0.82v-0.82h0.82v-0.82h-0.82v-0.82h-0.82v-0.82h-0.82v0.82h-0.82v0.82h-0.82v0.82h0.82v0.82h0.82V42.623z M6.557,40.984h0.82
				v-0.82h-0.82V40.984z M0,37.705h0.82v-0.82H0V37.705z M9.016,38.525h0.492v-1.639H9.016V38.525z"/>
			<path fill="#C8313E" d="M0,35.246h0.82v0.82h0.82v0.82h0.82v0.82h0.82v0.82h0.82v0.82h0.82v-0.82h0.82v-0.82h0.82v-0.82h0.82
				v-0.82h0.82v-0.82h0.82v-0.82h0.492v-3.279H9.016v-0.82h-0.82v-0.82h-0.82v-0.82h-0.82v-0.82h-0.82v-0.82h-0.82v-2.131H3.279
				v0.492h-0.82v0.82h-0.82v0.82H0.82v0.82H0v2.459h0.82v-0.82h0.82v-0.82h0.82v-0.82h0.82v0.82h0.82v0.82h0.82v0.82h0.82v0.82h0.82
				v0.82h0.82v0.82h-0.82v0.82h-0.82v0.82H3.279v-0.82h1.639v-0.82h-0.82v-0.82h-0.82v-0.82h-0.82v0.82h-0.82v0.82H0.82v0.82H0
				V35.246z M0,31.967h0.82v-0.82H0V31.967z M9.016,29.508h0.492v-0.82H9.016V29.508z M7.377,27.869h0.82v-0.82h0.82v-0.82h0.492
				v-1.311H9.016v0.492h-0.82v0.82h-0.82V27.869z M5.738,25.41h0.82v-0.492h-0.82V25.41z"/>
		</g>
		<g transform="translate(0,549) scale(1,-1)">
			<g id="q_3_" transform="scale(5.304347826,9)">
				<path fill="#C8313E" d="M15.574,50h-2.459v-0.82h-0.82v-0.82h-0.82v-0.82h-0.82v-0.82h-0.82v-0.82h0.82v-0.82h0.82v-0.82h0.82
					v-0.82h0.82v-0.82h0.82v-0.82h0.82v0.82h0.82v0.82h0.82v0.82h0.82v0.82h0.82v0.82h0.82v0.82h-0.82v0.82h-0.82v0.82h-0.82v0.82
					h-0.82V50z M14.754,48.361h-0.82v-0.82h-0.82v-0.82h-0.82v-0.82h0.82v-0.82h0.82v-0.82h0.82v0.82h0.82v0.82h0.82v0.82h-0.82
					v0.82h-0.82V48.361z M14.754,46.721h-0.82v-0.82h0.82V46.721z M18.852,49.18h-0.82v-0.82h0.82V49.18z M18.852,44.262h-0.82
					v-0.82h0.82V44.262z M9.836,50H9.344v-1.639h0.492V50z M9.836,44.262H9.344v-1.639h0.492V44.262z M17.213,42.623h-0.82v-0.82
					h-0.82v-0.82h-0.82v-0.82h0.82v-0.82h0.82v-0.82h0.82v0.82h0.82v0.82h0.82v0.82h-0.82v0.82h-0.82V42.623z M17.213,40.984h-0.82
					v-0.82h0.82V40.984z M12.295,42.623h-0.82v-0.82h-0.82v-0.82h-0.82v-0.82h0.82v-0.82h0.82v-0.82h0.82v0.82h0.82v0.82h0.82v0.82
					h-0.82v0.82h-0.82V42.623z M12.295,40.984h-0.82v-0.82h0.82V40.984z M18.852,37.705h-0.82v-0.82h0.82V37.705z M9.836,38.525
					H9.344v-1.639h0.492V38.525z"/>
				<path fill="#C8313E" d="M18.852,35.246h-0.82v0.82h-0.82v0.82h-0.82v0.82h-0.82v0.82h-0.82v0.82h-0.82v-0.82h-0.82v-0.82h-0.82
					v-0.82h-0.82v-0.82h-0.82v-0.82h-0.82v-0.82H9.344v-3.279h0.492v-0.82h0.82v-0.82h0.82v-0.82h0.82v-0.82h0.82v-0.82h0.82v-2.131
					h1.639v0.492h0.82v0.82h0.82v0.82h0.82v0.82h0.82v2.459h-0.82v-0.82h-0.82v-0.82h-0.82v-0.82h-0.82v0.82h-0.82v0.82h-0.82v0.82
					h-0.82v0.82h-0.82v0.82h-0.82v0.82h0.82v0.82h0.82v0.82h2.459v-0.82h-1.639v-0.82h0.82v-0.82h0.82v-0.82h0.82v0.82h0.82v0.82
					h0.82v0.82h0.82V35.246z M18.852,31.967h-0.82v-0.82h0.82V31.967z M9.836,29.508H9.344v-0.82h0.492V29.508z M11.475,27.869
					h-0.82v-0.82h-0.82v-0.82H9.344v-1.311h0.492v0.492h0.82v0.82h0.82V27.869z M13.115,25.41h-0.82v-0.492h0.82V25.41z"/>
			</g>
		</g>
	</g>
</g>
<path fill="#FFFFFF" d="M30.435,29.508v-7.377h-4.348v-7.377h-4.348v7.377h-4.348v7.377h-4.348v7.377h4.348v7.377h4.348v7.377h4.348
	v-7.377h4.348v-7.377h4.348v-7.377H30.435z M26.087,36.885h-4.348v-7.377h4.348V36.885z"/>
<path fill="#FFFFFF" d="M13.043,88.524H8.696v-7.377h4.348V88.524z"/>
<path fill="#FFFFFF" d="M39.13,88.524h-4.348v-7.377h4.348V88.524z"/>
<path fill="#FFFFFF" d="M82.608,29.508v-7.377h-4.348v-7.377h-4.348v7.377h-4.348v7.377h-4.348v7.377h4.348v7.377h4.348v7.377h4.348
	v-7.377h4.348v-7.377h4.348v-7.377H82.608z M78.261,36.885h-4.348v-7.377h4.348V36.885z"/>
<path fill="#FFFFFF" d="M65.217,88.524H60.87v-7.377h4.348V88.524z"/>
<path fill="#FFFFFF" d="M91.304,88.524h-4.348v-7.377h4.348V88.524z"/>
<path fill="#FFFFFF" d="M69.565,420.492v7.377h4.348v7.377h4.348v-7.377h4.348v-7.377h4.348v-7.377h-4.348v-7.377h-4.348v-7.377
	h-4.348v7.377h-4.348v7.377h-4.348v7.377H69.565z M73.913,413.115h4.348v7.377h-4.348V413.115z"/>
<path fill="#FFFFFF" d="M86.957,361.475h4.348v7.377h-4.348V361.475z"/>
<path fill="#FFFFFF" d="M60.87,361.475h4.348v7.377H60.87V361.475z"/>
<path fill="#FFFFFF" d="M17.392,420.492v7.377h4.348v7.377h4.348v-7.377h4.348v-7.377h4.348v-7.377h-4.348v-7.377h-4.348v-7.377
	h-4.348v7.377h-4.348v7.377h-4.348v7.377H17.392z M21.739,413.115h4.348v7.377h-4.348V413.115z"/>
<path fill="#FFFFFF" d="M34.783,361.475h4.348v7.377h-4.348V361.475z"/>
<path fill="#FFFFFF" d="M8.696,361.475h4.348v7.377H8.696V361.475z"/>
</svg>
