<?xml version="1.0" encoding="utf-8"?>
<!-- Generator: Adobe Illustrator 16.0.0, SVG Export Plug-In . SVG Version: 6.00 Build 0)  -->
<!DOCTYPE svg PUBLIC "-//W3C//DTD SVG 1.1//EN" "http://www.w3.org/Graphics/SVG/1.1/DTD/svg11.dtd">
<svg version="1.1" id="Laag_1" xmlns="http://www.w3.org/2000/svg" xmlns:xlink="http://www.w3.org/1999/xlink" x="0px" y="0px"
	 width="800px" height="400px" viewBox="0 0 800 400" enable-background="new 0 0 800 400" xml:space="preserve">
<rect fill="#002395" width="800" height="400"/>
<path fill="#FECB00" d="M212,0h400v400L212,0z"/>
<polygon fill="#FFFFFF" points="190,60.015 212.336,76.243 203.804,49.985 226.14,33.757 198.532,33.757 190,7.5 181.468,33.757 
	153.86,33.757 176.196,49.985 167.664,76.243 "/>
<polygon fill="#FFFFFF" points="253.804,99.985 276.14,83.757 248.532,83.757 240,57.5 231.468,83.757 203.86,83.757 
	226.196,99.985 217.664,126.243 240,110.015 262.336,126.243 "/>
<polygon fill="#FFFFFF" points="290,160.015 312.336,176.243 303.804,149.985 326.141,133.757 298.532,133.757 290,107.5 
	281.468,133.757 253.86,133.757 276.196,149.985 267.664,176.243 "/>
<polygon fill="#FFFFFF" points="340,210.015 362.336,226.242 353.805,199.985 376.141,183.757 348.532,183.757 340,157.5 
	331.468,183.757 303.86,183.757 326.196,199.985 317.664,226.242 "/>
<polygon fill="#FFFFFF" points="390,260.015 412.336,276.242 403.805,249.985 426.141,233.758 398.532,233.758 390,207.5 
	381.468,233.758 353.859,233.758 376.195,249.985 367.664,276.242 "/>
<polygon fill="#FFFFFF" points="440,310.015 462.336,326.242 453.805,299.985 476.141,283.758 448.532,283.758 440,257.5 
	431.468,283.758 403.859,283.758 426.195,299.985 417.664,326.242 "/>
<polygon fill="#FFFFFF" points="490,360.015 512.336,376.242 503.805,349.985 526.141,333.758 498.532,333.758 490,307.5 
	481.468,333.758 453.859,333.758 476.195,349.985 467.664,376.242 "/>
<polygon fill="#FFFFFF" points="126.191,0 117.664,26.243 140,10.015 162.336,26.243 153.809,0 "/>
<polygon fill="#FFFFFF" points="526.19,400 553.81,400 553.805,399.985 576.141,383.758 548.532,383.758 540,357.5 531.468,383.758 
	503.859,383.758 526.195,399.985 "/>
</svg>
