<?xml version="1.0" encoding="utf-8"?>
<!-- Generator: Adobe Illustrator 16.0.0, SVG Export Plug-In . SVG Version: 6.00 Build 0)  -->
<!DOCTYPE svg PUBLIC "-//W3C//DTD SVG 1.1//EN" "http://www.w3.org/Graphics/SVG/1.1/DTD/svg11.dtd">
<svg version="1.1" id="Laag_1" xmlns="http://www.w3.org/2000/svg" xmlns:xlink="http://www.w3.org/1999/xlink" x="0px" y="0px"
	 width="900px" height="600px" viewBox="0 0 900 600" enable-background="new 0 0 900 600" xml:space="preserve">
<rect fill="#FFFFFF" width="900" height="600"/>
<path fill="#FF0000" d="M390,0v240H0v120h390v240h120V360h390V240H510V0H390z"/>
<path fill="#FF0000" d="M251.606,97.922h-0.118c-13.948,2.629-28.221,4.336-42.756,5.048c0.712-14.533,2.418-28.805,5.047-42.751
	v-0.123h-0.035c-6.683,0.824-13.488,1.254-20.394,1.254s-13.711-0.43-20.394-1.254h-0.036v0.118
	c2.629,13.948,4.336,28.221,5.048,42.756c-14.534-0.712-28.806-2.419-42.753-5.048h-0.121v0.016
	c0.826,6.689,1.257,13.5,1.257,20.412c0,6.904-0.43,13.706-1.253,20.387v0.044h0.12c13.946-2.628,28.217-4.335,42.75-5.047
	c-0.712,14.534-2.419,28.806-5.048,42.752v0.121h0.007c6.692-0.827,13.507-1.258,20.423-1.258c6.907,0,13.713,0.431,20.398,1.255
	h0.032v-0.12c-2.628-13.946-4.335-28.217-5.047-42.75c14.533,0.712,28.805,2.418,42.751,5.047h0.123v-0.026
	c-0.825-6.687-1.256-13.495-1.256-20.405s0.431-13.718,1.256-20.405V97.922z"/>
<path fill="#FF0000" d="M765.026,97.917h-0.117c-13.948,2.629-28.221,4.336-42.756,5.048c0.712-14.533,2.418-28.805,5.047-42.751
	v-0.123h-0.035c-6.684,0.824-13.488,1.254-20.395,1.254s-13.711-0.43-20.394-1.254h-0.036v0.118
	c2.629,13.948,4.336,28.221,5.048,42.756c-14.534-0.712-28.806-2.419-42.753-5.048h-0.121v0.016
	c0.826,6.689,1.257,13.5,1.257,20.412c0,6.904-0.43,13.706-1.253,20.387v0.044h0.119c13.947-2.628,28.218-4.335,42.751-5.047
	c-0.712,14.534-2.419,28.806-5.048,42.752v0.121h0.008c6.691-0.826,13.506-1.258,20.422-1.258c6.908,0,13.714,0.431,20.398,1.255
	h0.031v-0.12c-2.628-13.946-4.334-28.217-5.047-42.75c14.533,0.712,28.805,2.418,42.751,5.047h0.122v-0.026
	c-0.824-6.687-1.256-13.495-1.256-20.405s0.432-13.718,1.256-20.405V97.917z"/>
<path fill="#FF0000" d="M251.725,461.219h-0.118c-13.948,2.629-28.221,4.336-42.756,5.048c0.712-14.533,2.418-28.805,5.047-42.751
	v-0.123h-0.035c-6.683,0.824-13.488,1.254-20.394,1.254s-13.711-0.43-20.394-1.254h-0.036v0.117
	c2.629,13.949,4.336,28.222,5.048,42.757c-14.534-0.712-28.806-2.419-42.753-5.048h-0.121v0.016
	c0.826,6.689,1.257,13.5,1.257,20.412c0,6.904-0.43,13.707-1.253,20.388v0.044h0.12c13.946-2.628,28.217-4.334,42.75-5.047
	c-0.712,14.533-2.419,28.806-5.048,42.752v0.121h0.007c6.692-0.826,13.507-1.258,20.423-1.258c6.907,0,13.713,0.431,20.398,1.255
	h0.032v-0.12c-2.628-13.946-4.335-28.217-5.047-42.75c14.533,0.712,28.805,2.418,42.751,5.047h0.123v-0.026
	c-0.825-6.687-1.256-13.495-1.256-20.405c0-6.909,0.431-13.718,1.256-20.404V461.219z"/>
<path fill="#FF0000" d="M765.146,461.214h-0.117c-13.948,2.629-28.221,4.336-42.756,5.048c0.712-14.533,2.418-28.805,5.047-42.752
	v-0.122h-0.035c-6.684,0.824-13.488,1.255-20.395,1.255s-13.711-0.431-20.394-1.255h-0.036v0.118
	c2.629,13.947,4.336,28.221,5.048,42.756c-14.534-0.713-28.806-2.419-42.753-5.048h-0.121v0.017
	c0.826,6.688,1.257,13.5,1.257,20.412c0,6.903-0.43,13.705-1.253,20.387v0.045h0.119c13.947-2.629,28.218-4.336,42.751-5.048
	c-0.712,14.534-2.419,28.806-5.048,42.752v0.121h0.008c6.691-0.826,13.506-1.258,20.422-1.258c6.908,0,13.714,0.431,20.398,1.255
	h0.031v-0.12c-2.628-13.946-4.334-28.218-5.047-42.75c14.533,0.712,28.805,2.419,42.751,5.047h0.122v-0.026
	c-0.824-6.687-1.256-13.495-1.256-20.404c0-6.91,0.432-13.719,1.256-20.405V461.214z"/>
</svg>
