<?xml version="1.0" encoding="utf-8"?>
<!-- Generator: Adobe Illustrator 19.1.0, SVG Export Plug-In . SVG Version: 6.00 Build 0)  -->
<svg version="1.1" id="Laag_1" xmlns="http://www.w3.org/2000/svg" xmlns:xlink="http://www.w3.org/1999/xlink" x="0px" y="0px"
	 viewBox="-175 120.9 840 600" style="enable-background:new -175 120.9 840 600;" xml:space="preserve">
<style type="text/css">
	.st0{fill:#244AA5;}
	.st1{fill:#D0A650;}
	.st2{fill:#FFFFFF;}
</style>
<title>Flag of Kosovo</title>
<rect x="-175" y="120.9" class="st0" width="840" height="600"/>
<path class="st1" d="M157.1,405.5c0,0,1.6-1.1,2.1-1.2c0.6-0.1,2.6-0.8,2.6-0.8s1.3-0.7,2-0.7c0.7,0,2.1,0.8,2.6,1.4
	c0.4,0.7,2.7,1.8,2.7,1.8s1.6,0.5,1.9,0c0.3-0.5,1-0.9,1.7-0.9c0.7,0,0.8-0.7,0.8-1.2s0.3-1.2,0.8-1.8c0.6-0.7,1.7-1.1,1.7-1.1
	s1.6-0.7,1.7-1.6c0.2-0.9,1.7-1.6,2.6-1.7c0.8-0.1,0-0.5,2.3-0.3c2.3,0.3,2.6-0.5,2.7-1.2c0.2-0.7,0-1.3,1.4-1.2
	c1.4,0.1,2.1,0.1,2.1-0.7c0-0.8,1.3-1.2-1-1.8c-2.3-0.7-2.1-0.1-2.3-1.2c-0.2-1.1,0-0.9-1.6-1.1c-1.6-0.1-0.7-0.9-0.8-1.7
	c-0.2-0.8-0.6-1.2-0.8-1.7c-0.3-0.5-1.1-0.5-1.1-1.3c0-0.8-0.2-1.2-1-1.2c-0.8,0-1.1,0-1.1-0.8c0-0.8,0.2-1.4,1-1.4
	c0.8,0,1.3-0.7,1.1-1.4c-0.2-0.8-0.2-2.5-0.2-2.5l1.1-1.3c0,0,3.4-2.8,3.7-3.3c0.3-0.5,1.4-0.9,2,0.1c0.6,1,0.8,1.3,1.3,1.8
	c0.4,0.5,1.7,0.1,2-0.4c0.3-0.5,0.4-2.4,1.2-3.5c0.8-1,1.3-1.5,1.5-2.4c0.2-0.8,0.6-1.5,1.5-1.5c0.9,0,1.5-1.2,1.5-1.9
	c0-0.7,0.4-1.4,1.5-1.5c1.1-0.2,1.7-0.8,2.1,0.2c0.4,1,0.8,1,1.5,1.4c0.8,0.4,1.9,0.8,2.4,0.4c0.6-0.5,0.8-1.4,1.7-0.8
	c0.8,0.5,1.4,0,1.6-1c0.2-1,0.4-2.4,0.4-2.4s0.2-0.7,1.5-0.7s0.4-0.8,1.1-1.4c0.8-0.5,0.8-1,1.7-0.7c0.9,0.4,2.4-0.4,1.7-1.3
	c-0.8-0.8-2.4-2.2-1.5-3.3c0.9-1,1.3-2.7,0.4-2.9c-0.9-0.2-2.2,0.2-2.4-0.8c-0.2-1-0.6-1.7,0.6-1.9c1.1-0.2,3-0.2,3.5-0.7
	c0.6-0.5,2.4-0.8,2.4-2.4s0.6-1.7,0.8-2.6c0.2-0.8,0.2-2.6-0.6-3.5c-0.8-0.8-1.9-2.1-2.1-2.6c-0.2-0.5-0.9-1.4-2.1-1.7
	c-1.1-0.4-2.1-0.5-2.1-1.4s0.8,0.2,0.8-2.1c0-2.2-1.5-2.6-1.5-2.6l-2.2-1.4c0,0-4-1.1-5-1.1c-1.1,0-2.3-1.1-1.1-1.8
	c1.2-0.7,1.5-2,1.1-2.9c-0.5-1-0.8-1.7-2.4-2.1c-1.7-0.4-2.1-0.8-1.4-1.8s0.9-1.7,1.8-1c0.9,0.7,2.4,1,3.6,0.4s1.7-1,2.3-0.4
	c0.6,0.6,1.4,1.1,2.3,0.3s2.6-1,3.3-0.6c0.8,0.4,2.6,0.3,3.2,0s1.8-1.3,1.8-1.8s0.8-1.5,1.5-2c0.8-0.4,1.7-1.8,2.4-1.8
	c0.8,0,1.1-0.8,1.1-1.4s0.6-1.7,0.8-2.1c0.2-0.4,1.7-1,2.7-0.1c1.1,0.8,2.4,1.1,2.4,1.1s1.5,0.3,2.3,0s1.8-0.6,2.9,0.1
	c1.1,0.7,2.6,0.7,2.6,0.7s0.3-1.1,0.3-1.7s0.3-1.5-0.3-2c-0.6-0.4-1.4-1-0.2-1.8c1.2-0.8,1.2-0.7,2.4-0.7c1.2,0,2,0.1,2.9,0.1
	s2.4,0.8,2.4,1.7s0.6,1.4,1.4,1.8c0.8,0.4,1.7,0.8,1.4,1.5c-0.3,0.7-0.3,1.3,0.6,1.1c0.9-0.1,1.2,0.4,1.2,1.1s0.3,1.1,1.2,1.4
	c0.9,0.3,1.4,0.8,1.4,1.5s-0.2,1.1,0.2,1.8c0.3,0.7,1.2,1.8,1.2,1.8s1.7,2-0.5,1c-2.1-1-2.6-1.4-3.3-1.3c-0.8,0.1-1.2,0.6-1.2,0.6
	s-1.1,0.3-1.8,0.3s-1.5,1.5-0.3,1.8s1.7,0.6,1.7,1.5s-0.5,0.7-1.1,1.4c-0.6,0.7-1.1,0.3-2.1,0.3s-1.4,0.8-1.4,1.7
	c0,0.8,0.5,0.7,0.9,1.4c0.5,0.7,1.2,0.8,2,0.1c0.8-0.7,1.4-1.1,1.8,0.1c0.5,1.3,1.1,1.3,2,1.3c0.9,0,1.2,0,2-0.4
	c0.8-0.4,1.7,0,1.8,1.1c0.2,1.1,0.9,1.3,1.7,1.7c0.8,0.4,1.2,0.7,1.4,1.4c0.2,0.7,0.6,1,1.4,0.6c0.8-0.4,2-0.7,2.4-0.1
	s1.2,1.7,1.2,1.7l0.2,1.4l2.9,1c0,0,0.3,0.7,0.3,1.3s0.5,0.8,1.2,0.7c0.8-0.1,2.1,0,2.1,0s1.1-0.4,1.1-1.3s0.5-1.1,1.2-1.1
	c0.8,0,2.4,0.6,2.9-0.3s1.8-1.1,2.9-0.7c1.1,0.4,3.8,1.5,3.8,1.5s-0.3,0.1,0.6,1.5c0.9,1.4,2.6,1.4,2.6,1.4s0.2,1.3,0.5,1.8
	c0.3,0.6,1.7,0.8,2.4,0.3c0.8-0.6,1.8-1.3,2.7-1.3s1.5,0,1.5-0.6c0-0.6-0.9-1-0.9-1.8s0.9-0.8,1.1-1.7c0.2-0.8,1.1,0,1.7,0.4
	c0.6,0.4,1.4,1.1,1.4,1.7s1.2,2.5,2,2.8s2.7,0.4,3.3-0.3c0.6-0.7,2.1-1,2,0.7c-0.2,1.7-0.5,1.8,0.6,2.4s1.2,2.5,0.3,3.1
	c-0.9,0.6-1.2,0.7-1.2,1.7s-0.3,2.1,0.5,2.7s1.2,1,1.2,1.5c0,0.6,0.9,3.1,0.9,3.1s0.5,2.5,0.3,3.1c-0.2,0.6-0.5,1.5,0.9,1.4
	c1.4-0.1,1.7-0.1,1.7,1s0.5,1.5-0.3,2c-0.8,0.4-1.2,1.8-0.5,2.1c0.8,0.3,1.4,0.7,1.5,1.3s1.4,1.5,2.1,1c0.8-0.6,0.9-0.8,1.5-1
	c0.6-0.1,1.1-0.6,0.5-1.3c-0.6-0.7-0.8-1.4-0.2-1.8c0.6-0.4,0.9-1.8,0.9-1.8s0.9-1.3,2,0c1.1,1.3,1.2,0.8,2,0.8
	c0.8,0,1.1,0.7,1.1,1.4c0,0.7,1.5,0.6,1.5,1.7s0.3,3.8,0.3,3.8s0,1.5,0.9,2.1c0.9,0.6,0.8,0.7,0.3,1.4c-0.5,0.7-0.3,1.8-0.3,2.4
	c0,0.6,0.3,0.8-0.5,1.4c-0.8,0.6-1.1,1.3-0.6,2.1s0.3,1.4,1.5,2.4c1.2,1,1.1,1.4,1.1,2.1c0,0.7,1.2,1.7,1.2,2.4
	c0,0.7,0.9,1.5,1.7,1.7c0.8,0.1,1.7,1.4,1.7,2.1c0,0.7,0.2,2.5,0.2,2.5s-0.2,0.4,0.8,0.4s1.5,1,1.8-0.1c0.3-1.1,1.2-1.3,1.8-1.5
	c0.6-0.3,1.8-0.8,2.4-0.4c0.6,0.4,1.4,0.4,2,0.4s3.5,0.1,3.5,0.1s0.8-0.1,1.2,1c0.5,1.1,1.8,2.4,1.1,2.9c-0.8,0.6-0.8,1.7,0.2,1.7
	c0.9,0,1.8,0,1.8,0.7s0.2,1.3,0.9,0.8c0.8-0.4,1.2-0.6,1.5,0s0.9,0.6,1.7,1c0.8,0.4,1.1,0.1,1.5-0.4c0.5-0.6,2.3-1.1,2.3-1.1
	s2.4-0.6,3.3-0.3c0.9,0.3,2.1,0.8,2.1,0.8s0.6,1.4,0.3,2.2c-0.3,0.8-0.6,0.7-0.3,2c0.3,1.3-0.3,1.4-0.9,1.3c-0.6-0.1-1.2-0.1-1.2,1
	s-0.6,1.4-0.6,2.4c0,1,0,0.8-0.6,1.3c-0.6,0.4-0.8,1.1,0.2,1.3c0.9,0.1,0.6,1.1,0.6,1.7s-0.2,1.8-0.2,1.8s0.2,0.7-0.9,0.7
	c-1.1,0-2-0.1-2.1,0.6c-0.2,0.7-1.4,1.8-0.3,2.5s0.8,1.1,0.2,1.4c-0.6,0.3-1.1,1.7,0.2,2.1c1.2,0.4,1.1,0.8,0.3,1.4s-2.3,1-2.3,1.8
	s-0.3,0.8-1.2,1c-0.9,0.1-1.4,1.3-0.3,2.7c1.1,1.4,1.4,1.1,2.1,1.1c0.8,0,0.8-1.1,0.8-1.1s2.6,0.1,3.3,0.1s1.8,0,2.4-0.4
	c0.6-0.4,2.3-1.1,2.3,0.1s0.3,1.1,1.1,1.7c0.8,0.6,0.9,0.1,1.5,1c0.6,0.8,0.8,0.1,1.2-0.8c0.5-1,1.4-2,2.1-0.8
	c0.8,1.1,0.8,0.8,1.7,0.8s1.2,0.4,1.2,1.1c0,0.7,0.9,0.7,2,0.6c1.1-0.1,1.2,0.6,1.7,1.3c0.5,0.7,0.6,0.6,1.2,0.6s1.2,0,1.7-0.6
	c0.5-0.6,1.1-1.3,1.7-0.4s1.8,0.7,2.1-0.3c0.3-1,1.7-1.8,2.4-0.7c0.8,1.1,1.4,1.1,2.1,1.3c0.8,0.1,1.8,0.1,2.3,0.8
	c0.5,0.7,2,1.8,0.9,2.7s-2.3,2-1.4,2.2c0.9,0.3,1.5,0.6,2.1,1.3c0.6,0.7,2.6,1,3.5,1.1c0.9,0.1,1.7,0.3,2.7-0.6s2.1-0.8,2,0.3
	c-0.2,1.1,0.5,2.4,0.5,2.4s0.8,1.8,0.8,2.5c0,0.7-0.2,0.8,1.2,1.7c1.4,0.8,1.2,1.4,2.3,0.6s1.4-1.3,1.4-2c0-0.7,0-2.2,0-2.2
	s1.5-0.3,2.1-0.7c0.6-0.4,3-1.7,3.6-1.1c0.6,0.6,1.4,0.4,2,0.1s1.8-0.3,2.4-0.3s1.7,0.1,2.9-0.8c1.2-1,1.2-0.7,2,0
	c0.8,0.7,0.8,1.5,0.3,2.1c-0.5,0.6,0,1.8,1.1,1.8s1.4,0.6,1.4,1.3s0.2,1.7,0.3,2.2s0.2,0.8,1.8,1.3c1.7,0.4,1.4,1.4,1.7,2.1
	c0.3,0.7,0.3,1.3-0.6,1.3c-0.9,0-1.2,0.4-1.4,1.1c-0.2,0.7-1.5,1-1.5,1l-1.4-0.3c0,0-0.9,0-1.4,0.6c-0.5,0.6-1.4,1.7-0.8,2.7
	c0.6,1,0.6,1.5,0,2c-0.6,0.4-0.9,2.5-1.5,2.1c-0.6-0.4-1.4,0.1-2,0.4s-0.5,2.2,0.8,2.9c1.2,0.7,1.5,1.7,1.5,1.7l1.4,2.1
	c0,0-0.5,0.4-0.8,1.1c-0.3,0.7-1.2,2.1-0.3,2.4c0.9,0.3,0.5,1.8-0.5,1.8s-2-0.4-2.1,0.7c-0.2,1.1-0.6,0.8-1.5,0.7
	c-0.9-0.1-3.2-0.7-3.8,0.4c-0.6,1.1-0.8,1.5-1.8,1.4s-0.6,1.7-0.3,2.4c0.3,0.7,1.4,1.7,1.4,1.7s0.9,0.7,0.9,2.1s-0.6,1.3-1.2,0.3
	c-0.6-1-1.8-0.8-2,0.3c-0.2,1.1-0.3,2.8-1.4,2.8s-1.5,0.3-2,0.8c-0.5,0.6-1.2,1.5-1.2,2.1s-0.2,1.1-0.9,1.3
	c-0.8,0.1-0.9,1.7-0.9,1.7s-1.8,0.3-2,1s0.2,1.8-1.4,2c-1.5,0.1-2.4,1.1-2.9,1.8s-0.6,1.3,0,2c0.6,0.7,1.1,2.9,1.8,3.4
	c0.8,0.4,1.4,0.6,1.2,1.7c-0.2,1.1-1.1,2,0.2,2s2,0.3,1.5,1.3c-0.5,1-0.5,1.1-1.4,1.5c-0.9,0.4-1.4,0.4-1.4,1.5
	c0,1.1,0.3,1.1-0.5,1.5c-0.8,0.4-0.8,1-0.8,1.8c0,0.8-0.3,0.6-1.2,1.5c-0.9,1-2.1,1-2.9,0.7c-0.8-0.3-0.9-0.3-1.1-1.1
	c-0.2-0.8-1.5-0.8-2.3-0.7s-1.8,1-1.8,1s-1.4,0.8-0.8,1.5c0.6,0.7,0.3,1.8-0.8,1.7c-1.1-0.1-3.5,1.1-4.3-0.1
	c-0.8-1.3-2.9-2.1-3.2-0.4s0.9,1.5,0.8,3.2s-0.5,1.7-1.1,2.2c-0.6,0.6-0.6,1-0.8,1.7c-0.2,0.7-0.3,2.2,0.8,2.8s1.5,2.1,1.5,2.9
	c0,0.8,0,1.7,1.1,1.7s2-0.1,2.1-1.1c0.2-1,2.3-1.5,2.4,0.4c0.2,2,0.2,2.9,0.9,3.8c0.8,0.8,1.4,2,2,2.4s1.6,4,1.6,4
	c-1.5,0.3-1.9,2.2-2.8,2.6c-0.5,0.2-1.1,0-1.6,0.4c-0.4,0.3-0.4,0.8-0.9,1c-1.1,0.5-0.9-1.2-2.2-0.6c-1.2,0.6-1.3,2-3.1,1.4
	c-0.9-0.3-1.5-3.9-1.7-4.7c-0.2-0.5-1.1-2-1.4-2.4c-1-1.5-3.1,0-3.7-0.5c-1-0.7-0.6-1.9-2.1-2c-3.2-0.2-0.9,1.9-2.2,2.4
	c-2.5,0.9-2.5-2.4-4.4-0.9c-0.7,0.6,1.1,0.9,0.7,1.9c-0.4,0.8-2.2,2-2.1,3c0.2,1.3,1.6,1.7,2,2.8c1.1,2.9-0.8,4.9-3.6,2.6
	c-1.6-1.3-1.9-3.6-4.4-3.4c-0.6,0-0.8,0.6-1.3,0.7c-0.6,0-1-0.5-1.6-0.3c-0.9,0.3-0.1,0.9-0.3,1.5c0,0-1.2,1-1.4,1.3
	c-0.7,0.9-0.5,1.7-1.4,2.5c-0.8,0.6-1.5,0.2-2.4,1.2c-0.9,1-1,2.5-2.2,3.5c-0.6,0.5-1-1.5-1.8-0.2c-0.1,0.2-0.2,0.3-0.3,0.5
	c-0.2,0.4-0.2,0.6,0,1c1.6,3.1-1.7,4.2-2.8,6.4c-0.5,0.9,0.8,1.8,0.3,2.5c-0.3,0.5-1.8,2-1.9,2.3c-0.1,0.3-0.3,1-0.5,1.3
	c-0.3,0.3-1.2,0.1-1.3,0.6c-0.1,0.5,1,0.9,1.2,1.2c0.3,0.4-0.2,0.9,0,1c1.7,1.7,0.7,1.2,1.6,2.7c0.1,0.2,0.6-0.2,0.8,0.4
	c0.2,0.5-0.4,0.5-0.2,1.1c0,0.2,1.3,1.8,1.3,1.8c0.1,0.5-2.3,1.6-2.9,1.6c-1.4,0,1.3-3-1.1-3c-1,0-1.1,2.3-1.4,2.6
	c-0.1,0.1-1.1,0-1.3,0c-1.5,0-2.5,1.9-3.1,2.1c-0.4,0.1-1.2-0.2-1.9-0.1c-0.6,0.1-1.3,0.7-1.9,0.7c-0.4,0-0.6-0.2-0.9-0.4
	c-0.7-0.4-1.9-0.6-2.7-0.8c-0.4-0.1-1.2,0.5-1.5,0.4c-0.5-0.3,0.3-1.2-0.8-1.8c-0.2-0.1-1-2.1-1-2.2c0.4-1.3,0.8-2.8,0.6-4.2
	c-0.2-1.4-2.5-2.7-3.1-3.8c-0.5-0.9-0.9-3.2-1.7-3.8c-0.9-0.6-1.8-1.9-2.3-2.8c-0.2-0.3,0.3-0.8,0-1.3c-0.4-0.5-1.1-0.7-1.3-1.4
	c-0.2-0.6,0-2.4-0.6-2.8c-0.7-0.4-5.4-1-6.5-1.1c-0.6,0-1.1,0-1.5-0.5c-0.2-0.2-0.5-0.9-0.6-0.9c-0.5,0-1,0.2-1.4,0.2
	c-0.3,0-0.9-0.2-1.2,0c-1.5,1-1.9,2.3-3.3,3.4c-1.4,1.1-3,1-4.5,2.3c-0.9,0.8-1.5,2.7-2.4,3.6c-0.4,0.4-1,0-1.1,0.2
	c-0.8,0.9-1.8,1.5-2.6,2.4c-0.2,0.2-0.1,0.5-0.3,0.7l-1.6,0.4c-0.4,0.1-1.2,0-1.6,0.1c-0.8,0.2-0.7,1-3.3,1.6
	c-0.2,0-0.5,0.2-0.7,0.3c-0.3,0.2-0.5,0.5-0.8,0.7c-0.2,0.1-0.8-0.1-1.1-0.1c-0.6,0.1-1,0.7-1.6,0.7c-1.4,0.2-3.6-0.6-4.6-0.2
	c-0.6,0.2-2.4,2.2-3.1,2.5c-0.4,0.1-0.7,0-1.2-0.2c-0.2,0.3-0.8,2.4-1,2.9c0,0-2.9,2.5-3.2,2.8c-0.4,0.4-0.5,0.9-1,1.3
	c-0.3,0.3-0.8,0.6-1.3,0.6c-0.6,0-1.5-0.5-2.1-0.6c-1.1-0.2-4.4-0.3-5.4-0.1c-1,0.2-0.7,3.1-3.3,3.4c-1.5,0.2-2.9,0.5-4.4,0.6
	c-0.2,0-1.1-0.6-2-0.4c-0.3,0.1-1.4,1.2-1.4,1.6v0.6c0,0.1,0.3,0.5,0.3,0.5c-0.6,0.7-1.9,1.7-2.3,2.5c-0.1,0.2-0.3,0.5-0.5,0.6
	c-0.3,0.2-2.1,0.9-2.2,1.2c-0.4,1,1.2,2,1.1,2.5c-0.5,1.4-2.3,2.7-2.9,3.9c-0.2,0.5,0.6,2.3,0.6,2.9c-0.2,1.6-0.8,3.7-0.7,5.4
	c0,0.3,0.2,2,0.3,2.1c0.2,0.3,0.6,0.5,0.9,0.8c0.3,0.3,2.3,4.2,2.4,4.6c0.4,2.9-3.8,1.9-1.4,4.8c0.4,0.5,0.7,0.9,1.1,1.3
	c0.5,0.5,3.6,2.8,3.7,3c0.1,0.4-2.5,0.8-3,1.3c-1.2,1.2-2.2,3.4-3.4,4.6c-0.7,0.8-1.4-0.1-2.3,1.7c-0.3,0.7,0,2.2-0.4,2.6
	c-0.6,0.6-1.1-0.2-1.7,0.1c-0.3,0.1-0.4,0.9-0.7,1.1c-0.7,0.6-6.8,3.8-7.3,3.5c-0.3-0.1-0.6-1.2-0.7-1.5c-0.1-0.3-0.5-1.1-0.8-1.4
	c-1.6-1.3-4-1.6-5.5,0c-0.4,0.4-0.4,1-0.9,1.5c-0.8,0.7-1.8,1.3-2.6,2c-0.2,0.1-0.6,0.7-0.8,0.6c-0.6-0.1-2.1-1.8-2.5-2.2
	c-0.7-0.8-2.7-2.7-2.9-3.6c0-3.1-2.4-6.4-3.5-9.4l1.5,0c1.7-1.2,1.2-4,4.3-2.9c0.4-0.5,0.3-1.1,1.1-1.5c0.3-0.1,0.8-0.3,0.9-0.5
	c1-1.6,2.2-7.6,1.2-9.1c-0.9-1.4-1.9-1.3-2.7-3.6c-0.2-0.6,0.2-1.4,0-2.1c-0.2-0.6-1.2-3.9-1.3-4.1c-0.2-0.3-0.8-0.6-0.9-0.8
	c0-0.3-0.3-3.9-0.2-4.2c-1-2.8-4.5-4.6-4.7-4.9c-0.4-0.7-0.8-1.5-1.3-2.3c-0.5-0.9-0.5-1.3-0.8-2.2c-0.1-0.4-0.7-0.7-0.7-1.1
	c-0.1-0.7,2-2.3,1.9-3.6c0-0.4-1.3-1.7-1.1-2.4c0.3-0.7,1.6-2.4,1.6-3.2c-0.1-1.1-2.1-3.4-2.4-4.6c-0.1-0.6,0.8-1,0.6-1.4
	c-0.3-0.5-2.4-2.4-2.7-3c-0.3-0.4,0.8-1,0-1.8c-0.7-0.7-0.1-0.5-0.3-1c-0.2-0.7-1-1.3-1.3-2c-0.3-0.6-2.1-7.2-2.1-7.6
	c-0.3-0.5-0.8-0.8-1.1-1.3c-0.3-0.5-0.4-1.3-0.6-1.7c0,0-2.1-0.6-2.4-1.2c-0.3-0.5-0.4-2.1-0.9-2.9c-0.3-0.4-0.7-0.3-1-0.6
	c-0.3-0.2-0.2-0.6-0.4-0.8c-0.6-0.8-1.8-0.1-2.7-3.2c-1.1-0.8-2.1-1.4-3.1-2.4c-0.2-0.2-0.3-0.4-0.5-0.5c-0.8-0.3-1.9-0.4-2.5-1
	c-0.4,0-2.4-0.1-2.6-0.2c-0.2-0.1-0.5-1-0.6-1c-1.1-0.2-2.8-0.1-3.7-0.9c-0.7-0.6-0.9-3.7-2.2-3.3c-0.2-0.1-0.3-0.1-0.5-0.1
	c-0.8-1.1-3.7-1.2-4.9-1.9c-0.3-0.2-1.4,0-1.4-0.4c0.3-0.6,0.2-1.1,0.2-1.7c-0.6-0.6-1.1-1.4-1.5-1.8c-1.1-0.2-0.7-0.3-1.4-0.8
	c-1.9-0.1-2.1,0.2-3.3,1.3c-0.3,0.3-0.9,0.3-1.3,0.6c-0.6,0.3-0.8,1.5-1.7,1c-0.3-0.2-0.5-0.5-0.7-0.7c-0.5-0.5-0.8-0.2-1.1-1
	c-1.6-0.8-5.9,2.1-6.9,0c-0.7-0.4-1.3,0.1-1.9-0.5c-0.3-0.3,0.8-3.8-2.3-5.2c0.7-0.6,1.5-0.9,2.2-1.5c0.2-0.4,0-1,0-1.4
	c0-0.6,0.4-1.8,0.3-2.2c-0.1-0.4-0.6-0.8-0.7-1.3c-0.2-0.5,0-1.1-0.2-1.6c-0.2-0.1-0.8-0.5-1-0.5c-0.8-0.7-1.7-1.1-2.3-1.9
	c-0.2-0.2-0.3-0.5-0.5-0.6c-0.6-0.4-2.4-1-2.4-1.9c0-0.3,0.4-0.3,0.5-0.6c0.1-0.3,0-0.8,0.3-1.1c0.9-1.2,2.8-0.7,2.5-2.9
	c-0.2-1-0.8-1.8-1-2.9c-0.3-0.2-0.4-0.7-0.7-0.9c-1.9-0.2-1.6-2.1-2.3-2.6c-2-1.4-3.6-0.5-1.3-3.2c0.3-0.9-1.9-2.3-2.4-2.8
	c-0.8-0.8-0.4-2.4-0.7-3.2c-0.2-0.4-1.5-1.2-1.9-1.8c-0.1-0.2-0.5-1.1-0.6-1.2l0-0.3c0.4-0.3,0.2-0.9,0.1-1.4
	c-0.3-0.2-0.8-0.2-1-0.4c-1.8-1.6-4-2.4-6.4-3.3c-0.6-0.2-0.5-0.8-1-1c-0.5-0.2-3.7-1.6-3.9-1.6c-0.4-0.1-0.6-1.5-0.9-2
	c-0.2-0.4-1.1-1.2-1.1-1.2c0.1-1.3-0.8-1.5-1.8-2.2c0.1-0.2-0.1-0.6-0.1-0.8c0-0.2,0.7-2.5,0.8-2.8c0.2-0.5,0.8-0.9,0.7-1.5
	c-0.2-0.9-0.3-2.2-0.6-3c-1-2.7-2.2-2.4-1.6-5.9c0.2-0.7-0.1-1.2,0.5-1.8c-0.1,0,0.3-0.4,0.3-0.5c0.3-0.3,1.3-0.8,1.5-1.1
	c0.6-0.8,0.9-2.5,1.6-3.1c0.5-0.4,2.1-1.2,2.3-1.6c0.2-0.3,0.6-1.2,0.4-1.5c-0.5-0.3-1.1-0.2-1.6-0.2c-0.2,0-0.9-0.5-1.4-0.6
	c-0.2-0.2-0.4-0.4-0.4-0.6l-0.2-0.2c-0.6-0.1-1.3-0.5-1.8-0.6c-0.7-0.3-1.6-0.3-2.3-0.7c-1.2-0.7-2.6-2.6-3.8-2.9
	c-1.6-0.3-2.6,0.1-4.1,0.2c-1,0.1-1-0.5-1.8-0.8c-1.1-0.3-0.3,0.6-2.7-0.2c-0.3-0.2,0.2-1.1,0.2-1.4c-0.4-0.1-0.8,0.1-1.3,0
	c-2-0.5-1.3-2.3-1.8-3.5c-0.2-0.3-1.1-0.2-1.4-0.2c-0.1,0-0.2-0.2-0.1-0.3l0.2-0.1c0.3-0.5-0.9-1.9-0.8-2c0.1-0.4,2.5-0.8,2.9-0.8
	c0.1-0.3-0.2-0.6-0.3-0.9c-0.1-0.7,0.4-1.6,0.6-2.2l-0.1-0.2c-0.7-0.4-0.9-0.9-1.5-1.4c0-0.3,0.5-0.5,0.5-0.8c1.2-3.3,3-0.7,4.6-3.7
	c0.2-0.3,0.6-1,0.8-1.5l0.3-0.1c0.3,0.1,0.7,0.3,1,0.2c0.2-0.3,0.7-0.4,1.1-0.5l0.6,0.1c3-0.6,2.3-1.7,4-2.9
	c0.5-0.3,1.8-0.5,2.4-0.7c0.6,0.3,1.6,1.3,2.8,1.8c0.9,0.4,3.9,1,4.4,1.3c0.6,0.4,0.8,1.2,1.3,1.5c1.7,0.9,0.7-0.6,2.4-0.3
	c1.7,0.4,3,1.7,4.6,2.4c0.3,0.1,0.9,0,1.2-0.1c0.5-0.1,3.2-0.6,3.4-0.5c0.3,0.1,0.8,0.4,1.1,0.5c0.4,0.1,0.7-0.7,0.9-0.7
	c1.1,0.2,1.2,0.6,2.7,0.5c0.1,0,0.8-4.3,1.5-4.5c0.4-0.1,1.6,1,1.9,1.1c0.6,0.1,0-0.9-0.1-0.9c-0.2-0.4-0.9-3-0.9-3.2
	c0-0.1,0.8,0.2,1.1,0.1c0.8-0.3,2-0.5,2.6-1.2c0.1-0.1,1.4-1.9,1.4-2c0.1-0.3-0.3-1-0.2-1.3c0.2-0.2,0.9-0.5,1.3-0.8
	c0.5-0.5,0.6-1.3,1.3-1.7c2.7-0.2,3.6-2.3,6.1-2.6c0.2,0,0.7-0.1,0.8-0.1l0.5,0.8c0.2,0.2,1.8,1.2,2.1,1.1c0.2,0,0.3-0.4,0.6-0.5
	c0.5,0.1,1.9-0.8,2-1.2c0-0.1-0.3-0.5-0.2-0.8c0.1-0.2,1.8-1.5,2.1-1.6c0.6,0,1.3-0.1,1.8,0.1c0.3,0.1,0.4,0.7,0.8,0.7
	c0.4,0,1.2-0.1,1.5-0.1C156.4,406.1,156.6,405.4,157.1,405.5L157.1,405.5z"/>
<g id="h">
	<polygon class="st2" points="299.9,247 321.1,231.6 294.9,231.6 286.8,206.7 278.8,231.6 252.6,231.6 273.8,247 265.7,271.8 
		286.8,256.5 308,271.8 	"/>
	<polygon class="st2" points="382.3,261.5 403.5,246.1 377.3,246.1 369.2,221.2 361.2,246.1 335,246.1 356.2,261.5 348.1,286.4 
		369.2,271 390.4,286.4 	"/>
	<polygon class="st2" points="460.9,290.1 482.1,274.7 455.9,274.7 447.9,249.9 439.8,274.7 413.6,274.7 434.8,290.1 426.7,315 
		447.9,299.6 469,315 	"/>
</g>
<g>
	<g id="h_1_">
		<polygon class="st2" points="216.2,247 237.4,231.6 211.2,231.6 203.2,206.7 195.1,231.6 168.9,231.6 190.1,247 182,271.8 
			203.2,256.5 224.3,271.8 		"/>
		<polygon class="st2" points="133.8,261.5 155,246.1 128.8,246.1 120.8,221.2 112.7,246.1 86.5,246.1 107.7,261.5 99.6,286.4 
			120.8,271 141.9,286.4 		"/>
		<polygon class="st2" points="55.2,290.1 76.4,274.7 50.2,274.7 42.1,249.9 34.1,274.7 7.9,274.7 29.1,290.1 21,315 42.1,299.6 
			63.3,315 		"/>
	</g>
</g>
</svg>
