<?xml version="1.0" encoding="UTF-8"?>
<svg xmlns="http://www.w3.org/2000/svg" xmlns:xlink="http://www.w3.org/1999/xlink" width="511pt" height="341pt" viewBox="0 0 511 341" version="1.1">
<defs>
<clipPath id="clip0">
  <rect width="511" height="341"/>
</clipPath>
</defs>
<g id="surface0" clip-path="url(#clip0)">
<path style="fill: none; stroke-width: 0.1; stroke-linecap: butt; stroke-linejoin: miter; stroke: rgb(0%,0.392157%,98.431379%); opacity: 1;stroke-miterlimit: 10;" d="M 0 0 L 511 0 L 511 114 C 340.666107 113.999924 170.333557 113.999924 0 114 L 0 0 Z M 0 0 " transform="matrix(1,0,0,1,0,0)"/>
<path style="stroke: none; fill-rule: nonzero; fill: rgb(0%,0.392157%,98.431379%); opacity: 1;" d="M 0 0 L 511 0 L 511 114 C 340.666107 113.999924 170.333557 113.999924 0 114 L 0 0 Z M 0 0 "/>
<path style="fill: none; stroke-width: 0.1; stroke-linecap: butt; stroke-linejoin: miter; stroke: rgb(99.607849%,100%,98.823535%); opacity: 1;stroke-miterlimit: 10;" d="M 0 114 C 170.333557 113.999924 340.666107 113.999924 511 114 L 511 228 C 340.666107 227.999847 170.333557 227.999847 0 228 L 0 114 Z M 0 114 " transform="matrix(1,0,0,1,0,0)"/>
<path style="stroke: none; fill-rule: nonzero; fill: rgb(99.607849%,100%,98.823535%); opacity: 1;" d="M 0 114 C 170.333557 113.999924 340.666107 113.999924 511 114 L 511 228 C 340.666107 227.999847 170.333557 227.999847 0 228 L 0 114 Z M 0 114 "/>
<path style="fill: none; stroke-width: 0.1; stroke-linecap: butt; stroke-linejoin: miter; stroke: rgb(38.431376%,58.039218%,0.784314%); opacity: 1;stroke-miterlimit: 10;" d="M 128.004395 126.00296 C 138.33342 125.994797 148.662766 125.993362 158.994888 126.002243 C 159.006271 156.666946 159.00563 187.3311 158.995605 217.99704 C 148.663513 218.001526 138.334106 218.002899 128.005112 217.997757 C 127.992691 187.331818 127.993332 156.667664 128.004395 126.00296 Z M 128.004395 126.00296 " transform="matrix(1,0,0,1,0,0)"/>
<path style="stroke: none; fill-rule: nonzero; fill: rgb(38.431376%,58.039218%,0.784314%); opacity: 1;" d="M 128.004395 126.00296 C 138.33342 125.994797 148.662766 125.993362 158.994888 126.002243 C 159.006271 156.666946 159.00563 187.3311 158.995605 217.99704 C 148.663513 218.001526 138.334106 218.002899 128.005112 217.997757 C 127.992691 187.331818 127.993332 156.667664 128.004395 126.00296 Z M 128.004395 126.00296 "/>
<path style="fill: none; stroke-width: 0.1; stroke-linecap: butt; stroke-linejoin: miter; stroke: rgb(38.431376%,58.039218%,0.784314%); opacity: 1;stroke-miterlimit: 10;" d="M 165.004364 126.001785 C 175.666626 125.99704 186.329803 125.993713 196.995819 126.001694 C 197.00589 156.666962 197.005234 187.331696 196.995636 217.998215 C 186.329498 217.999283 175.66655 218.002808 165.004181 217.998306 C 164.992798 187.331787 164.993454 156.667053 165.004364 126.001785 Z M 165.004364 126.001785 " transform="matrix(1,0,0,1,0,0)"/>
<path style="stroke: none; fill-rule: nonzero; fill: rgb(38.431376%,58.039218%,0.784314%); opacity: 1;" d="M 165.004364 126.001785 C 175.666626 125.99704 186.329803 125.993713 196.995819 126.001694 C 197.00589 156.666962 197.005234 187.331696 196.995636 217.998215 C 186.329498 217.999283 175.66655 218.002808 165.004181 217.998306 C 164.992798 187.331787 164.993454 156.667053 165.004364 126.001785 Z M 165.004364 126.001785 "/>
<path style="fill: none; stroke-width: 0.1; stroke-linecap: butt; stroke-linejoin: miter; stroke: rgb(38.431376%,58.039218%,0.784314%); opacity: 1;stroke-miterlimit: 10;" d="M 203.004395 126.00296 C 213.332626 125.994797 223.661942 125.993362 233.994888 126.002243 C 234.005997 156.666946 234.005356 187.3311 233.995605 217.99704 C 223.662704 218.001526 213.333298 218.002899 203.005112 217.997757 C 202.992416 187.331818 202.993057 156.667664 203.004395 126.00296 Z M 203.004395 126.00296 " transform="matrix(1,0,0,1,0,0)"/>
<path style="stroke: none; fill-rule: nonzero; fill: rgb(38.431376%,58.039218%,0.784314%); opacity: 1;" d="M 203.004395 126.00296 C 213.332626 125.994797 223.661942 125.993362 233.994888 126.002243 C 234.005997 156.666946 234.005356 187.3311 233.995605 217.99704 C 223.662704 218.001526 213.333298 218.002899 203.005112 217.997757 C 202.992416 187.331818 202.993057 156.667664 203.004395 126.00296 Z M 203.004395 126.00296 "/>
<path style="fill: none; stroke-width: 0.1; stroke-linecap: butt; stroke-linejoin: miter; stroke: rgb(38.431376%,58.039218%,0.784314%); opacity: 1;stroke-miterlimit: 10;" d="M 240.004364 126.001785 C 250.665833 125.99704 261.329041 125.993713 271.995819 126.001694 C 272.005615 156.666962 272.004974 187.331696 271.995636 217.998215 C 261.328705 217.999283 250.665787 218.002808 240.004181 217.998306 C 239.992523 187.331787 239.993179 156.667053 240.004364 126.001785 Z M 240.004364 126.001785 " transform="matrix(1,0,0,1,0,0)"/>
<path style="stroke: none; fill-rule: nonzero; fill: rgb(38.431376%,58.039218%,0.784314%); opacity: 1;" d="M 240.004364 126.001785 C 250.665833 125.99704 261.329041 125.993713 271.995819 126.001694 C 272.005615 156.666962 272.004974 187.331696 271.995636 217.998215 C 261.328705 217.999283 250.665787 218.002808 240.004181 217.998306 C 239.992523 187.331787 239.993179 156.667053 240.004364 126.001785 Z M 240.004364 126.001785 "/>
<path style="fill: none; stroke-width: 0.1; stroke-linecap: butt; stroke-linejoin: miter; stroke: rgb(38.431376%,58.039218%,0.784314%); opacity: 1;stroke-miterlimit: 10;" d="M 278.004364 126.001785 C 288.665421 125.99704 299.328659 125.993713 309.995819 126.001694 C 310.005478 156.666962 310.004837 187.331696 309.995636 217.998215 C 299.328293 217.999283 288.665405 218.002808 278.004181 217.998306 C 277.992386 187.331787 277.993042 156.667053 278.004364 126.001785 Z M 278.004364 126.001785 " transform="matrix(1,0,0,1,0,0)"/>
<path style="stroke: none; fill-rule: nonzero; fill: rgb(38.431376%,58.039218%,0.784314%); opacity: 1;" d="M 278.004364 126.001785 C 288.665421 125.99704 299.328659 125.993713 309.995819 126.001694 C 310.005478 156.666962 310.004837 187.331696 309.995636 217.998215 C 299.328293 217.999283 288.665405 218.002808 278.004181 217.998306 C 277.992386 187.331787 277.993042 156.667053 278.004364 126.001785 Z M 278.004364 126.001785 "/>
<path style="fill: none; stroke-width: 0.1; stroke-linecap: butt; stroke-linejoin: miter; stroke: rgb(38.431376%,58.039218%,0.784314%); opacity: 1;stroke-miterlimit: 10;" d="M 316.004395 126.00296 C 326.331421 125.994797 336.660721 125.993362 346.994888 126.002243 C 347.005585 156.666946 347.004944 187.3311 346.995605 217.99704 C 336.661499 218.001526 326.332062 218.002899 316.005112 217.997757 C 315.992004 187.331818 315.992661 156.667664 316.004395 126.00296 Z M 316.004395 126.00296 " transform="matrix(1,0,0,1,0,0)"/>
<path style="stroke: none; fill-rule: nonzero; fill: rgb(38.431376%,58.039218%,0.784314%); opacity: 1;" d="M 316.004395 126.00296 C 326.331421 125.994797 336.660721 125.993362 346.994888 126.002243 C 347.005585 156.666946 347.004944 187.3311 346.995605 217.99704 C 336.661499 218.001526 326.332062 218.002899 316.005112 217.997757 C 315.992004 187.331818 315.992661 156.667664 316.004395 126.00296 Z M 316.004395 126.00296 "/>
<path style="fill: none; stroke-width: 0.1; stroke-linecap: butt; stroke-linejoin: miter; stroke: rgb(38.431376%,58.039218%,0.784314%); opacity: 1;stroke-miterlimit: 10;" d="M 353.004364 126.001785 C 363.664627 125.99704 374.327896 125.993713 384.995819 126.001694 C 385.005219 156.666962 385.004562 187.331696 384.995636 217.998215 C 374.327499 217.999283 363.664658 218.002808 353.004181 217.998306 C 352.992111 187.331787 352.992767 156.667053 353.004364 126.001785 Z M 353.004364 126.001785 " transform="matrix(1,0,0,1,0,0)"/>
<path style="stroke: none; fill-rule: nonzero; fill: rgb(38.431376%,58.039218%,0.784314%); opacity: 1;" d="M 353.004364 126.001785 C 363.664627 125.99704 374.327896 125.993713 384.995819 126.001694 C 385.005219 156.666962 385.004562 187.331696 384.995636 217.998215 C 374.327499 217.999283 363.664658 218.002808 353.004181 217.998306 C 352.992111 187.331787 352.992767 156.667053 353.004364 126.001785 Z M 353.004364 126.001785 "/>
<path style="fill: none; stroke-width: 0.1; stroke-linecap: butt; stroke-linejoin: miter; stroke: rgb(38.431376%,58.039218%,0.784314%); opacity: 1;stroke-miterlimit: 10;" d="M 0 228 C 170.333557 227.999847 340.666107 227.999847 511 228 L 511 341 L 0 341 L 0 228 Z M 0 228 " transform="matrix(1,0,0,1,0,0)"/>
<path style="stroke: none; fill-rule: nonzero; fill: rgb(38.431376%,58.039218%,0.784314%); opacity: 1;" d="M 0 228 C 170.333557 227.999847 340.666107 227.999847 511 228 L 511 341 L 0 341 L 0 228 Z M 0 228 "/>
</g>
</svg>
