<?xml version="1.0" encoding="UTF-8" standalone="no"?>
<!-- Created with Inkscape (http://www.inkscape.org/) -->

<svg
   xmlns:dc="http://purl.org/dc/elements/1.1/"
   xmlns:cc="http://creativecommons.org/ns#"
   xmlns:rdf="http://www.w3.org/1999/02/22-rdf-syntax-ns#"
   xmlns:svg="http://www.w3.org/2000/svg"
   xmlns="http://www.w3.org/2000/svg"
   xmlns:sodipodi="http://sodipodi.sourceforge.net/DTD/sodipodi-0.dtd"
   xmlns:inkscape="http://www.inkscape.org/namespaces/inkscape"
   width="573.53796"
   height="616.12073"
   id="svg5873"
   version="1.1"
   inkscape:version="0.48.4 r9939"
   sodipodi:docname="Nieuw document 17">
  <defs
     id="defs5875" />
  <sodipodi:namedview
     id="base"
     pagecolor="#ffffff"
     bordercolor="#666666"
     borderopacity="1.0"
     inkscape:pageopacity="0.0"
     inkscape:pageshadow="2"
     inkscape:zoom="0.35"
     inkscape:cx="341.76899"
     inkscape:cy="239.48892"
     inkscape:document-units="px"
     inkscape:current-layer="layer1"
     showgrid="false"
     fit-margin-top="0"
     fit-margin-left="0"
     fit-margin-right="0"
     fit-margin-bottom="0"
     inkscape:window-width="1600"
     inkscape:window-height="837"
     inkscape:window-x="-8"
     inkscape:window-y="-8"
     inkscape:window-maximized="1" />
  <metadata
     id="metadata5878">
    <rdf:RDF>
      <cc:Work
         rdf:about="">
        <dc:format>image/svg+xml</dc:format>
        <dc:type
           rdf:resource="http://purl.org/dc/dcmitype/StillImage" />
        <dc:title></dc:title>
      </cc:Work>
    </rdf:RDF>
  </metadata>
  <g
     inkscape:label="Laag 1"
     inkscape:groupmode="layer"
     id="layer1"
     transform="translate(-33.231007,-155.7304)">
    <rect
       style="fill:#0e44af;fill-opacity:1;fill-rule:evenodd;stroke:none"
       id="rect5817"
       width="186.19791"
       height="585.88849"
       x="33.231007"
       y="171.0489" />
    <rect
       style="fill:#ffffff;fill-opacity:1;fill-rule:evenodd;stroke:none"
       id="rect5819"
       width="186.78571"
       height="585.88849"
       x="219.429"
       y="171.0489" />
    <rect
       style="fill:#04882f;fill-opacity:1;fill-rule:evenodd;stroke:none"
       id="rect5821"
       width="183.6104"
       height="585.88849"
       x="406.21466"
       y="171.0489" />
    <path
       style="fill:#04882f;fill-opacity:1"
       d="m 34.49799,763.8511 0,-8 4,0 4,0 0,8 0,8 -4,0 -4,0 0,-8 z m 16,0 0,-8 4,0 4,0 0,8 0,8 -4,0 -4,0 0,-8 z m 16,0 0,-8 4,0 4,0 0,8 0,8 -4,0 -4,0 0,-8 z m 16,0 0,-8 4,0 4,0 0,8 0,8 -4,0 -4,0 0,-8 z m 16,0 0,-8 4,0 4,0 0,8 0,8 -4,0 -4,0 0,-8 z m 16,0 0,-8 4,0 4,0 0,8 0,8 -4,0 -4,0 0,-8 z m 17,0 0,-8 3.50001,0 3.5,0 0,8 0,8 -3.5,0 -3.50001,0 0,-8 z m 16.00001,0 0,-8 4,0 4,0 0,8 0,8 -4,0 -4,0 0,-8 z m 16,0 0,-8 4,0 4,0 0,8 0,8 -4,0 -4,0 0,-8 z m 16,0 0,-8 4,0 4,0 0,8 0,8 -4,0 -4,0 0,-8 z m 16,0 0,-8 4,0 4,0 0,8 0,8 -4,0 -4,0 0,-8 z m 16,0 0,-8 4,0 4,0 0,8 0,8 -4,0 -4,0 0,-8 z m 16,0 0,-8 4,0 4,0 0,8 0,8 -4,0 -4,0 0,-8 z m 16,0 0,-8 4,0 4,0 0,8 0,8 -4,0 -4,0 0,-8 z m 16,0 0,-8 4,0 4,0 0,8 0,8 -4,0 -4,0 0,-8 z m 16,0 0,-8 4,0 4,0 0,8 0,8 -4,0 -4,0 0,-8 z m 16,0 0,-8 4,0 4,0 0,8 0,8 -4,0 -4,0 0,-8 z m 16,0 0,-8 4,0 4,0 0,8 0,8 -4,0 -4,0 0,-8 z m 16,0 0,-8 4,0 4,0 0,8 0,8 -4,0 -4,0 0,-8 z m 17,0 0,-8 4,0 4,0 0,8 0,8 -4,0 -4,0 0,-8 z m 16,0 0,-8 4,0 4,0 0,8 0,8 -4,0 -4,0 0,-8 z m 16,0 0,-8 4,0 4,0 0,8 0,8 -4,0 -4,0 0,-8 z m 16,0 0,-8 4,0 4,0 0,8 0,8 -4,0 -4,0 0,-8 z m 16,0 0,-8 4,0 4,0 0,8 0,8 -4,0 -4,0 0,-8 z m 16,0 0,-8 4,0 4,0 0,8 0,8 -4,0 -4,0 0,-8 z m 16,0 0,-8 4,0 4,0 0,8 0,8 -4,0 -4,0 0,-8 z m 16,0 0,-8 4,0 4,0 0,8 0,8 -4,0 -4,0 0,-8 z m 16,0 0,-8 4,0 4,0 0,8 0,8 -4,0 -4,0 0,-8 z m 16,0 0,-8 4,0 4,0 0,8 0,8 -4,0 -4,0 0,-8 z m 16,0 0,-8 4,0 4,0 0,8 0,8 -4,0 -4,0 0,-8 z m 16,0 0,-8 4,0 4,0 0,8 0,8 -4,0 -4,0 0,-8 z m 16,0 0,-8 4,0 4,0 0,8 0,8 -4,0 -4,0 0,-8 z m 17,0 0,-8 4,0 4,0 0,8 0,8 -4,0 -4,0 0,-8 z m 16,0 0,-8 4,0 4,0 0,8 0,8 -4,0 -4,0 0,-8 z m 16,0 0,-8 4.4166,0 c 3.6436,0 4.7601,-0.4715 6.3792,-2.6942 1.8668,-2.5628 2.0782,-2.6169 4.3334,-1.1098 1.3039,0.8713 4.1193,3.1127 6.2563,4.9808 l 3.8855,3.3966 -2.4976,2.9037 -2.4977,2.9037 -5.8878,-4.6755 -5.8879,-4.6754 -0.2921,7.485 -0.292,7.4851 -3.958,0 -3.9579,0 0,-8 z m 8.6667,-15.6667 c -0.3667,-0.3666 -0.6667,-2.1666 -0.6667,-4 l 0,-3.3333 8,0 8,0 0,4 0,4 -7.3333,0 c -4.0334,0 -7.6334,-0.3 -8,-0.6667 z m -0.6667,-19.8333 0,-3.5 8,0 8,0 0,3.5 0,3.5 -8,0 -8,0 0,-3.5 z m 0.1896,-16.25 0.3104,-3.75 7.75,-0.2921 7.75,-0.292 0,4.042 0,4.0421 -8.0604,0 -8.0603,0 0.3103,-3.75 z m 0,-16 0.3104,-3.75 7.75,-0.2921 7.75,-0.292 0,4.042 0,4.0421 -8.0604,0 -8.0603,0 0.3103,-3.75 z m 0,-16 0.3104,-3.75 7.75,-0.2921 7.75,-0.292 0,4.042 0,4.0421 -8.0604,0 -8.0603,0 0.3103,-3.75 z m 0,-16 0.3104,-3.75 7.75,-0.2921 7.75,-0.292 0,4.042 0,4.0421 -8.0604,0 -8.0603,0 0.3103,-3.75 z m -0.1896,-16.25 0,-4 8,0 8,0 0,4 0,4 -8,0 -8,0 0,-4 z m 0,-16 0,-4 8,0 8,0 0,4 0,4 -8,0 -8,0 0,-4 z m 0,-16 0,-4 8,0 8,0 0,4 0,4 -8,0 -8,0 0,-4 z m 0,-16 0,-4 8,0 8,0 0,4 0,4 -8,0 -8,0 0,-4 z m 0.6667,-12.6667 c -0.3667,-0.3666 -0.6667,-2.1666 -0.6667,-4 l 0,-3.3333 8,0 8,0 0,4 0,4 -7.3333,0 c -4.0334,0 -7.6334,-0.3 -8,-0.6667 z m 0,-16 c -0.3667,-0.3666 -0.6667,-2.1666 -0.6667,-4 l 0,-3.3333 8,0 8,0 0,4 0,4 -7.3333,0 c -4.0334,0 -7.6334,-0.3 -8,-0.6667 z m 0,-16 c -0.3667,-0.3666 -0.6667,-2.1666 -0.6667,-4 l 0,-3.3333 8,0 8,0 0,4 0,4 -7.3333,0 c -4.0334,0 -7.6334,-0.3 -8,-0.6667 z m 0,-16 c -0.3667,-0.3666 -0.6667,-2.1666 -0.6667,-4 l 0,-3.3333 8,0 8,0 0,4 0,4 -7.3333,0 c -4.0334,0 -7.6334,-0.3 -8,-0.6667 z m -0.6667,-19.8333 0,-3.5 8,0 8,0 0,3.5 0,3.5 -8,0 -8,0 0,-3.5 z m 0.1896,-16.25 0.3104,-3.75 7.75,-0.2921 7.75,-0.292 0,4.042 0,4.0421 -8.0604,0 -8.0603,0 0.3103,-3.75 z m 0,-16 0.3104,-3.75 7.75,-0.2921 7.75,-0.292 0,4.042 0,4.0421 -8.0604,0 -8.0603,0 0.3103,-3.75 z m 0,-16 0.3104,-3.75 7.75,-0.2921 7.75,-0.292 0,4.042 0,4.0421 -8.0604,0 -8.0603,0 0.3103,-3.75 z m 0,-16 0.3104,-3.75 7.75,-0.2921 7.75,-0.292 0,4.042 0,4.0421 -8.0604,0 -8.0603,0 0.3103,-3.75 z m -0.1896,-16.25 0,-4 8,0 8,0 0,4 0,4 -8,0 -8,0 0,-4 z m 0,-16 0,-4 8,0 8,0 0,4 0,4 -8,0 -8,0 0,-4 z m 0,-16 0,-4 8,0 8,0 0,4 0,4 -8,0 -8,0 0,-4 z m 0,-16 0,-4 8,0 8,0 0,4 0,4 -8,0 -8,0 0,-4 z m 0.6667,-12.6667 c -0.3667,-0.3666 -0.6667,-2.1666 -0.6667,-4 l 0,-3.3333 8,0 8,0 0,4 0,4 -7.3333,0 c -4.0334,0 -7.6334,-0.3 -8,-0.6667 z m 0,-16 c -0.3667,-0.3666 -0.6667,-2.1666 -0.6667,-4 l 0,-3.3333 8,0 8,0 0,4 0,4 -7.3333,0 c -4.0334,0 -7.6334,-0.3 -8,-0.6667 z m 0,-16 c -0.3667,-0.3666 -0.6667,-2.1666 -0.6667,-4 l 0,-3.3333 8,0 8,0 0,4 0,4 -7.3333,0 c -4.0334,0 -7.6334,-0.3 -8,-0.6667 z m 0,-16 c -0.3667,-0.3666 -0.6667,-2.1666 -0.6667,-4 l 0,-3.3333 8,0 8,0 0,4 0,4 -7.3333,0 c -4.0334,0 -7.6334,-0.3 -8,-0.6667 z m -0.6667,-19.8333 0,-3.5 8,0 8,0 0,3.5 0,3.5 -8,0 -8,0 0,-3.5 z m 0.1896,-16.25 0.3104,-3.75 7.75,-0.2921 7.75,-0.292 0,4.042 0,4.0421 -8.0604,0 -8.0603,0 0.3103,-3.75 z m 0,-16 0.3104,-3.75 7.75,-0.2921 7.75,-0.292 0,4.042 0,4.0421 -8.0604,0 -8.0603,0 0.3103,-3.75 z m 0,-16 0.3104,-3.75 7.75,-0.2921 7.75,-0.292 0,4.042 0,4.0421 -8.0604,0 -8.0603,0 0.3103,-3.75 z m 0,-16 0.3104,-3.75 7.75,-0.2921 7.75,-0.292 0,4.042 0,4.0421 -8.0604,0 -8.0603,0 0.3103,-3.75 z m -0.1896,-16.25 0,-4 8,0 8,0 0,4 0,4 -8,0 -8,0 0,-4 z m 0,-16 0,-4 8,0 8,0 0,4 0,4 -8,0 -8,0 0,-4 z m 0,-16 0,-4 8,0 8,0 0,4 0,4 -8,0 -8,0 0,-4 z m 0,-16 0,-4 8,0 8,0 0,4 0,4 -8,0 -8,0 0,-4 z m 2.9127,-11.1225 -2.2824,-3.2055 3.4348,-2.909 c 1.8892,-1.6 4.636,-3.781 6.104,-4.8466 l 2.6692,-1.9374 2.0808,2.6453 c 1.1445,1.455 2.0809,2.9805 2.0809,3.3901 0,0.6118 -5.3664,5.2495 -10.6524,9.2059 -0.7526,0.5634 -1.9441,-0.2493 -3.4349,-2.3428 z m -557.91271,-6.8775 0,-8 3,0 3,0 0,8 0,8 -3,0 -3,0 0,-8 z m 14.2079,0.25 0.2921,-7.75 3.75,-0.3104 3.75,-0.3103 0,8.0603 0,8.0604 -4.0421,0 -4.042,0 0.292,-7.75 z m 16.7921,-0.25 0,-8 3.5,0 3.5,0 0,8 0,8 -3.5,0 -3.5,0 0,-8 z m 16,-0.06 0,-8.0603 3.75,0.3103 3.75,0.3104 0.2921,7.75 0.292,7.75 -4.042,0 -4.0421,0 0,-8.0604 z m 16,0.06 0,-8 4,0 4,0 0,8 0,8 -4,0 -4,0 0,-8 z m 16,0 0,-8 4,0 4,0 0,8 0,8 -4,0 -4,0 0,-8 z m 16,0 0,-8 4.00001,0 4,0 0,8 0,8 -4,0 -4.00001,0 0,-8 z m 16.00001,0 0,-8 4,0 4,0 0,8 0,8 -4,0 -4,0 0,-8 z m 16,0 0,-8 4,0 4,0 0,8 0,8 -4,0 -4,0 0,-8 z m 16,0 0,-8 4,0 4,0 0,8 0,8 -4,0 -4,0 0,-8 z m 16,0 0,-8 4,0 4,0 0,8 0,8 -4,0 -4,0 0,-8 z m 16,0 0,-8 4,0 4,0 0,8 0,8 -4,0 -4,0 0,-8 z m 16,0 0,-8 4,0 4,0 0,8 0,8 -4,0 -4,0 0,-8 z m 16,0 0,-8 4,0 4,0 0,8 0,8 -4,0 -4,0 0,-8 z m 16.2079,0.25 0.2921,-7.75 3.75,-0.3104 3.75,-0.3103 0,8.0603 0,8.0604 -4.0421,0 -4.042,0 0.292,-7.75 z m 16.7921,-0.25 0,-8 3.5,0 3.5,0 0,8 0,8 -3.5,0 -3.5,0 0,-8 z m 16,0 0,-8 4,0 4,0 0,8 0,8 -4,0 -4,0 0,-8 z m 16,0 0,-8 4,0 4,0 0,8 0,8 -4,0 -4,0 0,-8 z m 16,0 0,-8 4,0 4,0 0,8 0,8 -4,0 -4,0 0,-8 z m 16,0 0,-8 4,0 4,0 0,8 0,8 -4,0 -4,0 0,-8 z m 16,0 0,-8 4,0 4,0 0,8 0,8 -4,0 -4,0 0,-8 z m 16,0 0,-8 4,0 4,0 0,8 0,8 -4,0 -4,0 0,-8 z m 16,0 0,-8 4,0 4,0 0,8 0,8 -4,0 -4,0 0,-8 z m 16,0 0,-8 4,0 4,0 0,8 0,8 -4,0 -4,0 0,-8 z m 16,0 0,-8 4,0 4,0 0,8 0,8 -4,0 -4,0 0,-8 z m 16,0 0,-8 4,0 4,0 0,8 0,8 -4,0 -4,0 0,-8 z m 16,0 0,-8 4,0 4,0 0,8 0,8 -4,0 -4,0 0,-8 z m 16.2079,0.25 0.2921,-7.75 3.75,-0.3104 3.75,-0.3103 0,8.0603 0,8.0604 -4.0421,0 -4.042,0 0.292,-7.75 z m 16.7921,-0.25 0,-8 3.5,0 3.5,0 0,8 0,8 -3.5,0 -3.5,0 0,-8 z m 16,0 0,-8 4,0 4,0 0,8 0,8 -4,0 -4,0 0,-8 z m 16,0 0,-8 4,0 4,0 0,8 0,8 -4,0 -4,0 0,-8 z m 16,0 0,-8 4,0 4,0 0,8 0,8 -4,0 -4,0 0,-8 z m 16,0 0,-8 4,0 4,0 0,8 0,8 -4,0 -4,0 0,-8 z m 16,0 0,-8 4,0 4,0 0,8 0,8 -4,0 -4,0 0,-8 z m 16,0 0,-8 4,0 4,0 0,8 0,8 -4,0 -4,0 0,-8 z"
       id="path5857"
       inkscape:connector-curvature="0" />
  </g>
</svg>
