<?xml version="1.0" encoding="UTF-8" standalone="no"?>
<!-- Created with Inkscape (http://www.inkscape.org/) -->

<svg
   xmlns:dc="http://purl.org/dc/elements/1.1/"
   xmlns:cc="http://creativecommons.org/ns#"
   xmlns:rdf="http://www.w3.org/1999/02/22-rdf-syntax-ns#"
   xmlns:svg="http://www.w3.org/2000/svg"
   xmlns="http://www.w3.org/2000/svg"
   xmlns:sodipodi="http://sodipodi.sourceforge.net/DTD/sodipodi-0.dtd"
   xmlns:inkscape="http://www.inkscape.org/namespaces/inkscape"
   width="601.13959"
   height="401.01947"
   id="svg4135"
   version="1.1"
   inkscape:version="0.48.4 r9939"
   sodipodi:docname="Nieuw document 12">
  <defs
     id="defs4137" />
  <sodipodi:namedview
     id="base"
     pagecolor="#ffffff"
     bordercolor="#666666"
     borderopacity="1.0"
     inkscape:pageopacity="0.0"
     inkscape:pageshadow="2"
     inkscape:zoom="0.98994949"
     inkscape:cx="390.64561"
     inkscape:cy="148.22698"
     inkscape:document-units="px"
     inkscape:current-layer="layer1"
     showgrid="false"
     fit-margin-top="0"
     fit-margin-left="0"
     fit-margin-right="0"
     fit-margin-bottom="0"
     inkscape:window-width="1600"
     inkscape:window-height="837"
     inkscape:window-x="-8"
     inkscape:window-y="-8"
     inkscape:window-maximized="1" />
  <metadata
     id="metadata4140">
    <rdf:RDF>
      <cc:Work
         rdf:about="">
        <dc:format>image/svg+xml</dc:format>
        <dc:type
           rdf:resource="http://purl.org/dc/dcmitype/StillImage" />
        <dc:title></dc:title>
      </cc:Work>
    </rdf:RDF>
  </metadata>
  <g
     inkscape:label="Laag 1"
     inkscape:groupmode="layer"
     id="layer1"
     transform="translate(120.56979,-294.70959)">
    <rect
       width="600.78461"
       height="400.87161"
       id="rect4086"
       x="-120.56979"
       y="294.70959"
       style="fill:#c8272c;fill-opacity:1" />
    <path
       style="fill:#e6e6e6"
       d="m -31.715753,696.03354 c -0.31303,-0.40277 -0.976114,-1.82416 -1.294713,-2.77552 -0.789009,-2.35594 -0.863086,-5.20981 -0.204064,-7.86111 0.783896,-3.15356 2.745462,-6.0635 5.21716,-7.73951 2.200687,-1.49228 4.796541,-2.21086 7.665646,-2.12212 1.630184,0.0502 2.785445,0.25359 4.27183,0.75147 2.130985,0.71367 4.28144,2.10686 5.685249,3.68322 0.6936912,0.77899 0.6885659,0.77438 0.5022422,0.45357 -0.081985,-0.14109 -0.2738052,-0.54549 -0.4262022,-0.89842 -1.368323,-3.16857 -1.466135,-6.76774 -0.27759,-10.21316 0.7991513,-2.31652 2.1898768,-4.36534 3.9710782,-5.85018 0.997817,-0.83178 1.7638332,-1.29451 2.9959138,-1.8097 1.0950281,-0.45786 1.922408,-0.69204 3.12357653,-0.88411 0.94860595,-0.15166 3.24314077,-0.14551 4.15206557,0.0107 2.4759934,0.42665 4.3388596,1.17545 6.2090534,2.49577 0.8130655,0.574 1.8648585,1.55386 2.4253805,2.25955 0.219929,0.27697 0.269801,0.26397 0.09299,-0.0222 -0.219829,-0.35813 -0.657604,-1.40282 -0.876791,-2.09251 -0.459357,-1.44538 -0.618213,-2.51778 -0.622588,-4.2033 -0.01411,-5.32986 2.937534,-10.26439 7.346897,-12.28347 1.825317,-0.83584 3.945581,-1.2499 5.999275,-1.17154 3.920715,0.14958 7.572681,1.78286 9.933044,4.44241 0.248819,0.28036 0.478868,0.53601 0.511242,0.56818 0.03264,0.0318 -0.0959,-0.27113 -0.284966,-0.67382 -0.616251,-1.31242 -0.984134,-2.62947 -1.176893,-4.2133 -0.113599,-0.93328 -0.05756,-2.85957 0.112487,-3.86673 0.774093,-4.5853 3.549228,-8.37395 7.349168,-10.0332 0.943981,-0.41218 1.394559,-0.56249 2.331123,-0.77768 4.071901,-0.93548 8.680152,0.11012 11.928918,2.70664 0.598753,0.47853 1.482821,1.34013 1.995554,1.94483 l 0.13502,0.15924 -0.111705,-0.19844 c -0.23098,-0.41016 -0.661217,-1.42929 -0.878033,-2.07967 -1.214563,-3.64355 -0.716195,-8.15501 1.272482,-11.51899 2.043905,-3.45741 5.139383,-5.53917 9.084582,-6.10954 1.09614,-0.15846 3.00093,-0.13975 4.105458,0.0401 3.198024,0.52144 6.063522,2.00999 8.09155,4.20334 0.30843,0.33355 0.568301,0.60013 0.5775,0.59238 0.009,-0.008 -0.121386,-0.30197 -0.290191,-0.65376 -0.385671,-0.80375 -0.766667,-1.9626 -0.983092,-2.9902 -0.238838,-1.13406 -0.295598,-3.46171 -0.114039,-4.67636 0.620325,-4.14982 2.773683,-7.64552 5.937322,-9.63844 2.057538,-1.29614 4.993629,-2.02649 7.549777,-1.87803 3.850381,0.22367 7.268354,1.80348 9.713222,4.48957 0.48635,0.53429 0.57939,0.62212 0.47175,0.44526 -0.18081,-0.2971 -0.70182,-1.53652 -0.88831,-2.1131 -0.897307,-2.77443 -0.852712,-6.0179 0.12206,-8.87601 1.32395,-3.88194 4.02358,-6.75564 7.56027,-8.04772 4.15885,-1.5194 9.23585,-0.79343 12.92349,1.84792 0.92277,0.66095 1.74704,1.42183 2.53487,2.33995 0.13266,0.15461 0.13296,0.15369 0.0152,-0.0546 -0.24538,-0.43328 -0.63284,-1.34967 -0.86004,-2.03412 -1.74266,-5.24944 0.0122,-11.55206 4.17206,-14.98431 0.9421,-0.77732 1.8607,-1.32633 3.01359,-1.80118 1.61543,-0.66535 3.15899,-0.95615 5.10438,-0.96162 3.99986,-0.0107 7.85618,1.64986 10.36195,4.46338 0.28296,0.31763 0.52413,0.58715 0.53605,0.59888 0.0118,0.0111 -0.14979,-0.34834 -0.35934,-0.80021 -0.43978,-0.9483 -0.83165,-2.18004 -1.02891,-3.23418 -0.17111,-0.91435 -0.19621,-3.75544 -0.0407,-4.61816 0.63854,-3.54387 2.08635,-6.2554 4.43265,-8.30162 1.91721,-1.67204 4.16699,-2.63738 6.834,-2.93236 0.88105,-0.0974 2.96818,-0.0457 3.78245,0.0938 1.85808,0.31834 3.44772,0.88528 5.0384,1.79694 0.89898,0.5152 2.34931,1.70024 3.06632,2.50538 0.67398,0.75689 0.68791,0.77024 0.53098,0.51013 -0.21759,-0.36062 -0.72271,-1.54736 -0.91755,-2.15548 -1.07253,-3.34815 -0.79875,-7.19853 0.74127,-10.42575 1.52018,-3.18558 3.78249,-5.20533 7.21439,-6.44088 1.5323,-0.55164 2.95585,-0.79851 4.60468,-0.79851 0.69117,0 1.44989,0.037 1.75225,0.0848 3.81259,0.60673 6.99038,2.42212 8.83636,5.04806 2.56299,3.64582 3.30584,8.36747 1.97174,12.53221 -0.19482,0.60812 -0.69997,1.79483 -0.91754,2.15548 -0.15693,0.26012 -0.143,0.24676 0.53098,-0.51012 0.717,-0.80515 2.16733,-1.99018 3.06631,-2.50539 1.59069,-0.91166 3.18031,-1.47858 5.03841,-1.79694 0.81427,-0.13952 2.90139,-0.19128 3.78245,-0.0938 2.667,0.29497 4.9168,1.26032 6.834,2.93235 2.3463,2.04623 3.79411,4.75776 4.43266,8.30163 0.15541,0.86272 0.13038,3.70381 -0.0407,4.61815 -0.19729,1.05414 -0.58914,2.28589 -1.02892,3.23418 -0.20954,0.45185 -0.37125,0.81195 -0.35934,0.80021 0.0118,-0.0111 0.25312,-0.2812 0.53606,-0.59887 2.50574,-2.81353 6.36208,-4.47462 10.36194,-4.46338 1.94538,0.006 3.48895,0.29628 5.10437,0.96162 1.15291,0.47485 2.07149,1.02386 3.01359,1.80118 4.15987,3.43225 5.91471,9.73487 4.17207,14.98431 -0.2272,0.68445 -0.61467,1.60084 -0.86005,2.03412 -0.11789,0.20826 -0.11763,0.20919 0.0152,0.0546 1.68289,-1.96117 3.64066,-3.30776 6.03936,-4.15392 3.49338,-1.23234 7.52801,-1.05064 10.63746,0.47907 5.59759,2.7537 8.49872,10.11918 6.46386,16.41071 -0.18649,0.57658 -0.70756,1.81601 -0.88834,2.11311 -0.10751,0.17683 -0.0148,0.089 0.47175,-0.44527 0.65588,-0.72059 1.3641,-1.36034 2.01858,-1.82355 3.56204,-2.52082 8.00654,-3.30693 12.14693,-2.14847 4.78779,1.33956 8.21454,5.51123 9.03483,10.99893 0.1813,1.21464 0.12458,3.54229 -0.11382,4.67634 -0.21652,1.02761 -0.59744,2.18646 -0.98309,2.99022 -0.16907,0.35178 -0.2992,0.64599 -0.2903,0.65375 0.0111,0.008 0.26879,-0.25882 0.57748,-0.59238 2.02804,-2.19335 4.89354,-3.6819 8.0916,-4.20334 1.10447,-0.18007 3.00928,-0.19881 4.10542,-0.0402 3.94517,0.57036 7.04065,2.65212 9.08459,6.10953 1.4158,2.39495 2.15835,5.72187 1.89062,8.47079 -0.18019,1.85252 -0.74888,3.80069 -1.49614,5.12787 l -0.11197,0.19845 0.13495,-0.15924 c 2.58826,-3.05246 6.22541,-4.80232 10.34821,-4.97859 3.24444,-0.13877 6.36601,0.88342 8.69881,2.84846 2.35394,1.98277 3.99778,4.97255 4.55778,8.28954 0.17017,1.00716 0.22616,2.93345 0.11233,3.86673 -0.19279,1.58382 -0.56065,2.90087 -1.17688,4.2133 -0.18909,0.40271 -0.31737,0.70594 -0.28511,0.67381 0.0333,-0.0319 0.26248,-0.28785 0.51119,-0.56818 0.60389,-0.68036 1.23006,-1.24009 2.01403,-1.80032 4.04231,-2.88848 9.55085,-3.4705 13.91835,-1.47054 4.4094,2.01907 7.3608,6.9536 7.34689,12.28347 -0.004,1.68552 -0.16313,2.75791 -0.62256,4.2033 -0.21913,0.6897 -0.65699,1.73447 -0.87684,2.09251 -0.17648,0.28811 -0.1268,0.30074 0.0931,0.0222 0.56047,-0.70563 1.61231,-1.68549 2.42534,-2.25951 1.87021,-1.32032 3.73305,-2.06911 6.20908,-2.49576 0.90886,-0.15662 3.2034,-0.16278 4.15201,-0.0107 1.20123,0.19206 2.02857,0.42624 3.12358,0.8841 1.2321,0.51519 1.99812,0.97792 2.99597,1.8097 4.10645,3.42324 5.84566,9.6325 4.15765,14.84409 -0.20985,0.64717 -0.66398,1.72789 -0.89037,2.11766 -0.18649,0.32078 -0.19131,0.32524 0.50224,-0.45352 1.40378,-1.5764 3.55428,-2.96955 5.68523,-3.68326 1.48641,-0.49777 2.64163,-0.70105 4.27188,-0.75147 3.92624,-0.1214 7.43678,1.317 9.81573,4.02194 1.74978,1.98964 2.83457,4.29748 3.33311,7.09108 0.16385,0.91928 0.22393,2.98241 0.11344,3.91532 -0.21727,1.8392 -0.80136,3.64078 -1.63953,5.05869 l -0.30921,0.52355 -211.62025,0.0148 -211.620265,0.0148 -0.112227,-0.14443 z m -78.704357,-53.61195 c -1.26113,-0.092 -3.00469,-0.503 -4.25448,-1.00272 -2.28116,-0.9121 -4.15342,-2.30802 -5.60061,-4.1757 l -0.39174,-0.50559 0,-141.4521 0,-141.45209 0.39174,-0.50556 c 1.44418,-1.86382 3.32043,-3.26408 5.58876,-4.17096 3.11885,-1.24692 6.63186,-1.37869 9.71996,-0.36464 5.093657,1.67268 8.602456,6.87863 8.602456,12.76331 0,2.23456 -0.364795,3.93266 -1.248574,5.81205 -0.182186,0.38745 -0.307531,0.68079 -0.278535,0.65191 0.02903,-0.0289 0.289061,-0.31244 0.577927,-0.63008 0.971944,-1.06881 1.980028,-1.8592 3.310907,-2.59602 2.004352,-1.10964 4.170424,-1.69681 6.566662,-1.7801 4.011877,-0.13941 7.591327,1.3726 10.020055,4.23269 2.772923,3.26538 3.93387,7.83041 3.063844,12.04745 -0.242214,1.17394 -0.60911,2.2243 -1.176879,3.36907 -0.146672,0.29576 -0.129467,0.28268 0.423158,-0.3209 2.06333,-2.25353 4.837973,-3.73801 7.989719,-4.27461 0.974224,-0.16588 2.903666,-0.22893 3.831656,-0.12527 4.20255,0.46958 7.390253,2.53724 9.573366,6.20967 1.716543,2.88758 2.335048,6.82725 1.599856,10.19048 -0.245292,1.12213 -0.765648,2.53602 -1.244609,3.38179 -0.118123,0.20858 -0.117863,0.2094 0.0152,0.0527 2.220248,-2.61847 5.166007,-4.27372 8.629628,-4.84909 0.964996,-0.16036 2.972019,-0.19578 3.969757,-0.0701 0.941811,0.11858 2.321042,0.45694 3.123561,0.76619 4.819727,1.85747 8.083557,6.94689 8.073135,12.58878 -0.0044,2.2314 -0.374037,3.94777 -1.254274,5.81963 -0.182189,0.38745 -0.307913,0.68078 -0.279364,0.6519 0.02856,-0.0289 0.25545,-0.28214 0.504209,-0.56282 1.967682,-2.21956 4.771827,-3.71498 8.070856,-4.30406 0.834585,-0.14903 2.901172,-0.19942 3.882052,-0.0947 1.723501,0.18404 3.673067,0.82461 5.106707,1.67794 4.6780024,2.78443 7.2218163,9.12174 5.9315853,14.7771 -0.2212299,0.96966 -0.5905137,2.03067 -0.9718501,2.79225 -0.2840352,0.56728 -0.3116238,0.70759 -0.080183,0.40741 0.2639343,-0.34221 1.3177596,-1.39994 1.684641,-1.69083 2.0273571,-1.60755 4.3979511,-2.63519 6.95958354,-3.01697 0.62351806,-0.0929 1.20561316,-0.13043 2.01889836,-0.13013 1.258358,0 1.9026576,0.0652 3.0473874,0.30612 5.0430014,1.06148 8.7937104,5.22521 9.7600444,10.83475 0.162469,0.94327 0.220559,2.93427 0.112417,3.85065 -0.205554,1.74059 -0.821164,3.73706 -1.497817,4.85747 -0.166653,0.27592 -0.136802,0.24845 0.4242,-0.39055 2.359453,-2.6876 5.893736,-4.34824 9.766361,-4.58891 0.720209,-0.0448 2.277598,0.0505 3.081974,0.18824 1.541963,0.26431 3.252981,0.90607 4.491678,1.68477 3.723621,2.34079 6.068958,6.82012 6.06046,11.57484 -0.004,2.25276 -0.369264,3.94578 -1.25986,5.83964 -0.182179,0.38744 -0.30843,0.68077 -0.280542,0.6519 0.02782,-0.0289 0.303986,-0.33601 0.613618,-0.68264 2.397062,-2.68305 6.294773,-4.35558 10.171963,-4.36486 1.35738,-0.003 2.193369,0.0907 3.428303,0.38538 5.487944,1.30939 9.303179,6.31095 9.61096,12.59942 0.106621,2.17889 -0.443642,4.73262 -1.42255,6.60187 -0.122357,0.23357 -0.163459,0.3539 -0.09149,0.26735 1.874728,-2.25248 4.507524,-3.87205 7.444697,-4.57961 1.222822,-0.29458 1.968697,-0.38152 3.314025,-0.38643 2.144549,-0.008 3.6567,0.29194 5.494821,1.08906 3.779298,1.63885 6.525182,5.37567 7.34994,10.00237 0.161838,0.90783 0.224082,3.05286 0.114639,3.95123 -0.181969,1.49393 -0.610034,2.99082 -1.216925,4.25528 -0.167364,0.34874 -0.277959,0.60867 -0.245706,0.57756 0.03224,-0.0311 0.226866,-0.2443 0.43243,-0.47371 1.840623,-2.05408 4.23427,-3.4612 7.026313,-4.13041 3.097379,-0.74244 6.281299,-0.47064 8.980644,0.76664 4.352394,1.99498 7.337374,6.90087 7.337374,12.05916 0,5.15831 -2.98498,10.06416 -7.337374,12.05915 -2.699335,1.23729 -5.883265,1.50911 -8.980634,0.76668 -2.792043,-0.66923 -5.18569,-2.07637 -7.026313,-4.13044 -0.205584,-0.22941 -0.400166,-0.44257 -0.43243,-0.47369 -0.03223,-0.0311 0.07828,0.22878 0.245706,0.57756 0.606881,1.26443 1.034956,2.76131 1.216925,4.25525 0.109443,0.8984 0.04715,3.04341 -0.114639,3.95123 -0.824758,4.62671 -3.570652,8.36353 -7.34995,10.00241 -1.838111,0.79707 -3.350272,1.09678 -5.494811,1.08905 -1.345328,-0.005 -2.091213,-0.0918 -3.314035,-0.38639 -2.937163,-0.70759 -5.569969,-2.32714 -7.444697,-4.57964 -0.07207,-0.0865 -0.03073,0.0333 0.09149,0.26735 1.857181,3.54632 1.902028,8.24697 0.115932,12.15356 -1.900697,4.15732 -5.461547,6.80017 -9.904245,7.35086 -1.070483,0.1327 -2.804294,0.10578 -3.85847,-0.06 -1.829061,-0.28748 -3.774523,-0.97624 -5.240027,-1.85516 -0.964852,-0.57864 -2.214742,-1.59837 -2.901896,-2.36753 -0.309622,-0.34654 -0.585759,-0.65371 -0.613618,-0.68263 -0.02782,-0.0289 0.0984,0.26447 0.280552,0.65193 0.890576,1.89383 1.255825,3.58684 1.25985,5.83962 0.01001,5.43194 -3.006376,10.36775 -7.550618,12.35655 -1.428595,0.62521 -2.843796,0.95708 -4.549089,1.06672 -4.259927,0.27385 -8.587916,-1.47416 -11.300766,-4.56432 -0.561002,-0.63901 -0.590863,-0.66651 -0.4242,-0.3905 0.218257,0.3614 0.639995,1.3347 0.875459,2.02048 0.821454,2.39242 0.909326,5.29292 0.241221,7.96114 -0.832524,3.32473 -2.883406,6.25562 -5.5725113,7.96361 -2.0466272,1.29992 -4.2526101,1.90279 -6.9661605,1.90376 -3.2813405,0 -6.376017,-1.08357 -8.9784919,-3.14711 -0.3668614,-0.29095 -1.4206767,-1.34858 -1.684641,-1.69083 -0.2314906,-0.30017 -0.2038719,-0.15988 0.080183,0.4074 1.8772812,3.74921 1.7109083,8.6928 -0.4280549,12.71909 -1.0481103,1.97293 -2.7401183,3.78388 -4.5316903,4.85024 -1.43363,0.85332 -3.383196,1.4939 -5.106707,1.67796 -0.98088,0.10471 -3.047458,0.0544 -3.882048,-0.0947 -3.299029,-0.58908 -6.103169,-2.08449 -8.070855,-4.30407 -0.248815,-0.28066 -0.475702,-0.53392 -0.504209,-0.56282 -0.02855,-0.0289 0.09721,0.26449 0.279364,0.65192 0.880237,1.87186 1.250162,3.5882 1.254278,5.8196 0.01038,5.64189 -3.253412,10.73133 -8.073139,12.58877 -0.80252,0.30928 -2.18175,0.64762 -3.123561,0.76623 -0.997738,0.12559 -3.004761,0.0902 -3.969753,-0.0701 -3.463621,-0.57536 -6.409384,-2.23064 -8.629628,-4.8491 -0.132916,-0.15675 -0.133175,-0.15593 -0.0152,0.0528 0.717317,1.26665 1.283483,3.1124 1.490075,4.85771 0.109522,0.92538 0.0518,2.84545 -0.114859,3.82023 -0.571687,3.34394 -2.158644,6.25332 -4.501094,8.2519 -1.90135,1.62225 -4.119644,2.55228 -6.802749,2.85206 -0.92799,0.10369 -2.857428,0.0405 -3.831656,-0.12524 -3.151687,-0.53654 -5.926334,-2.02102 -7.98966,-4.27455 -0.552622,-0.60356 -0.569841,-0.61662 -0.423158,-0.32085 1.894674,3.82016 1.951599,8.16268 0.159833,12.1916 -2.148845,4.83158 -6.699652,7.64411 -12.066916,7.45755 -2.396238,-0.0833 -4.56231,-0.67045 -6.566662,-1.7801 -1.330879,-0.73679 -2.338963,-1.52721 -3.310907,-2.59601 -0.288867,-0.31767 -0.548934,-0.60119 -0.577927,-0.63008 -0.02903,-0.0289 0.09634,0.26449 0.278538,0.65192 0.883779,1.87939 1.248574,3.5775 1.248574,5.81204 0,2.95369 -0.860845,5.74771 -2.502932,8.12366 -2.579018,3.73161 -6.739488,5.63393 -11.553148,5.2825 z m 577.99532,-0.0489 c -0.86154,-0.1198 -1.84357,-0.3421 -2.58419,-0.58497 -5.12814,-1.68159 -8.63509,-6.86875 -8.63509,-12.77232 0,-2.23454 0.36483,-3.93265 1.24851,-5.81204 0.18205,-0.38745 0.30736,-0.68081 0.27881,-0.65192 -0.0296,0.0289 -0.28919,0.31241 -0.57793,0.63008 -0.97194,1.06879 -1.97999,1.85922 -3.31092,2.59601 -2.00434,1.10964 -4.17041,1.69682 -6.56668,1.7801 -4.01183,0.13941 -7.5913,-1.37258 -10.02001,-4.23265 -2.77291,-3.26542 -3.9339,-7.83042 -3.06384,-12.04749 0.24209,-1.17393 0.60911,-2.22429 1.17685,-3.36906 0.14682,-0.29576 0.12939,-0.2827 -0.42315,0.32089 -2.0633,2.25353 -4.83795,3.73801 -7.98971,4.27463 -0.97424,0.16589 -2.90364,0.22893 -3.83164,0.12523 -4.20257,-0.46958 -7.39025,-2.53725 -9.57337,-6.20968 -1.71656,-2.88756 -2.33501,-6.82723 -1.59988,-10.19046 0.24543,-1.12213 0.76565,-2.536 1.24462,-3.38176 0.11828,-0.20858 0.11791,-0.20943 -0.0148,-0.0527 -2.22024,2.61846 -5.16604,4.27373 -8.6296,4.84909 -0.96505,0.16033 -2.97202,0.19574 -3.96983,0.0701 -0.94175,-0.11859 -2.32101,-0.45694 -3.12351,-0.76623 -4.81975,-1.85744 -8.08359,-6.94687 -8.07313,-12.58876 0.004,-2.23141 0.37405,-3.94775 1.25423,-5.81961 0.18204,-0.38744 0.30773,-0.6808 0.27955,-0.65192 -0.0296,0.0289 -0.25545,0.28217 -0.50422,0.56282 -1.96772,2.21959 -4.77185,3.71499 -8.07091,4.30407 -0.83454,0.14904 -2.90113,0.19946 -3.88201,0.0947 -1.72353,-0.18408 -3.6731,-0.82464 -5.10667,-1.67797 -4.67805,-2.78443 -7.22188,-9.12174 -5.93166,-14.77709 0.22098,-0.96966 0.59055,-2.03068 0.97187,-2.79224 0.284,-0.56729 0.31182,-0.70757 0.0801,-0.4074 -0.26397,0.34228 -1.31776,1.3999 -1.68463,1.69083 -2.02737,1.60752 -4.39794,2.63517 -6.9596,3.01694 -0.62354,0.0929 -1.20555,0.13048 -2.01888,0.13021 -1.25839,0 -1.90268,-0.0652 -3.04742,-0.30612 -5.04296,-1.06152 -8.79367,-5.22522 -9.76,-10.83479 -0.16277,-0.94326 -0.2206,-2.93423 -0.11235,-3.85061 0.20541,-1.7406 0.82119,-3.73707 1.49782,-4.85746 0.16685,-0.27598 0.13681,-0.24847 -0.42418,0.3905 -2.35945,2.68759 -5.89372,4.34824 -9.76637,4.58891 -0.72023,0.0448 -2.27759,-0.0504 -3.08202,-0.18823 -1.54194,-0.26431 -3.25294,-0.90609 -4.4916,-1.68477 -3.72365,-2.34078 -6.06901,-6.82013 -6.06052,-11.57486 0.004,-2.25279 0.36929,-3.94579 1.25991,-5.83962 0.18205,-0.38744 0.3081,-0.68081 0.28066,-0.65193 -0.0296,0.0289 -0.30401,0.33605 -0.61368,0.68263 -2.39703,2.68309 -6.29476,4.35561 -10.17193,4.36488 -1.35737,0.003 -2.19339,-0.0907 -3.42831,-0.38536 -5.48796,-1.30939 -9.30319,-6.31096 -9.61094,-12.59943 -0.10679,-2.17887 0.4436,-4.7326 1.42255,-6.60186 0.12272,-0.23357 0.1635,-0.3539 0.0916,-0.26736 -1.87473,2.2525 -4.50755,3.87205 -7.44471,4.57964 -1.22282,0.29458 -1.96875,0.38151 -3.31408,0.38639 -2.14449,0.008 -3.65664,-0.29197 -5.49477,-1.08905 -3.77926,-1.63888 -6.5252,-5.37569 -7.34997,-10.0024 -0.16166,-0.90783 -0.22395,-3.05284 -0.11457,-3.95123 0.18167,-1.49394 0.61004,-2.99083 1.21685,-4.25525 0.16758,-0.34875 0.27807,-0.60868 0.24582,-0.57756 -0.0333,0.0311 -0.22691,0.2443 -0.43241,0.47368 -1.84062,2.05408 -4.23423,3.46121 -7.0263,4.13044 -3.09741,0.74244 -6.28127,0.47061 -8.98065,-0.76667 -4.3524,-1.995 -7.33739,-6.90084 -7.33739,-12.05916 0,-5.15829 2.98499,-10.06418 7.33739,-12.05916 2.69938,-1.23727 5.88324,-1.50907 8.98065,-0.76664 2.79207,0.66922 5.18568,2.07634 7.0263,4.13042 0.20576,0.22944 0.40018,0.44259 0.43241,0.4737 0.0333,0.0311 -0.0782,-0.22877 -0.24582,-0.57755 -0.60681,-1.26446 -1.03492,-2.76135 -1.21685,-4.25529 -0.10938,-0.89837 -0.047,-3.04339 0.11457,-3.95122 0.82477,-4.62671 3.57071,-8.36353 7.34997,-10.00237 1.83813,-0.7971 3.35028,-1.09678 5.49477,-1.08906 1.34533,0.005 2.09126,0.0918 3.31408,0.38638 2.93716,0.70756 5.56998,2.32714 7.44471,4.57962 0.0719,0.0865 0.0333,-0.0333 -0.0916,-0.26736 -1.8572,-3.54632 -1.90206,-8.24697 -0.11605,-12.15356 1.90068,-4.15732 5.46153,-6.80013 9.90421,-7.35084 1.07048,-0.13268 2.80429,-0.10576 3.85845,0.06 1.82908,0.28749 3.77456,0.97627 5.24005,1.85516 0.96484,0.57864 2.21475,1.59841 2.90186,2.36752 0.30958,0.34659 0.58576,0.65376 0.61368,0.68264 0.0296,0.0289 -0.0979,-0.26447 -0.28067,-0.6519 -0.89059,-1.89386 -1.25587,-3.58688 -1.2599,-5.83964 -0.0111,-5.43195 3.00639,-10.36776 7.55067,-12.35654 1.42859,-0.62523 2.84377,-0.95707 4.54905,-1.06671 4.25992,-0.27393 8.58793,1.47417 11.30079,4.56429 0.56103,0.63901 0.59083,0.6665 0.42418,0.39055 -0.21801,-0.36148 -0.63995,-1.33471 -0.87543,-2.02052 -0.82152,-2.39243 -0.90938,-5.29292 -0.24099,-7.96113 0.83249,-3.32472 2.8834,-6.25562 5.5725,-7.96361 2.04665,-1.29992 4.25259,-1.90277 6.96616,-1.90375 3.28131,-0.002 6.37603,1.08357 8.97848,3.14713 0.36706,0.29088 1.42067,1.34857 1.68468,1.69083 0.23136,0.30013 0.20391,0.15986 -0.0801,-0.40741 -1.87729,-3.7492 -1.71088,-8.69282 0.42803,-12.71911 1.04814,-1.9729 2.74015,-3.78385 4.53176,-4.85024 1.43356,-0.85333 3.38314,-1.49391 5.1067,-1.67795 0.98084,-0.10474 3.04743,-0.0544 3.88197,0.0946 3.29906,0.58908 6.10319,2.08449 8.07091,4.30405 0.24878,0.28066 0.47571,0.53395 0.50422,0.56282 0.0296,0.0289 -0.0971,-0.26445 -0.27955,-0.65189 -0.88021,-1.87187 -1.25019,-3.58823 -1.25426,-5.81963 -0.0111,-5.64189 3.25338,-10.73131 8.07312,-12.58878 0.80251,-0.30923 2.18176,-0.64759 3.12357,-0.76619 0.99777,-0.12565 3.00473,-0.0902 3.96977,0.0701 3.46357,0.57537 6.4094,2.23062 8.6296,4.84909 0.13311,0.15676 0.13348,0.15595 0.0148,-0.0527 -0.71731,-1.26667 -1.28348,-3.11241 -1.4901,-4.85775 -0.10976,-0.92536 -0.0519,-2.84541 0.11494,-3.8202 0.57169,-3.34396 2.15863,-6.25334 4.50112,-8.25192 1.90133,-1.62223 4.1196,-2.55225 6.80273,-2.85206 0.92801,-0.1037 2.8574,-0.0405 3.83164,0.12527 3.15177,0.5366 5.92642,2.02108 7.98972,4.27461 0.55265,0.60355 0.56981,0.61663 0.42315,0.3209 -1.89468,-3.82015 -1.95159,-8.16269 -0.1598,-12.1916 2.14875,-4.83162 6.69959,-7.64414 12.0668,-7.45761 2.39627,0.0833 4.56234,0.67046 6.56668,1.7801 1.33093,0.73682 2.33898,1.52721 3.31092,2.59602 0.28919,0.31762 0.54894,0.6012 0.57793,0.63008 0.0296,0.0289 -0.0968,-0.26447 -0.27881,-0.6519 -0.88381,-1.87939 -1.24855,-3.5775 -1.24855,-5.81206 0,-1.22714 0.11086,-2.19406 0.38554,-3.35258 0.94915,-4.0079 3.56653,-7.35102 6.98348,-8.91994 2.82187,-1.29567 6.27156,-1.52648 9.44557,-0.63199 2.94665,0.83045 5.33662,2.40548 7.0966,4.67679 l 0.39174,0.50556 0,141.45209 0,141.45209 -0.39174,0.50559 c -1.44423,1.8638 -3.32043,3.26406 -5.58875,4.17094 -0.90416,0.36144 -2.14586,0.70724 -3.1077,0.8654 -1.01835,0.16745 -3.11065,0.21631 -3.99542,0.0932 z M 179.00554,448.94858 c -2.81864,-0.32477 -5.00323,-1.1275 -7.09616,-2.60753 -2.19787,-1.55424 -3.93331,-4.25549 -4.67825,-7.28179 -0.65606,-2.66523 -0.58667,-5.30384 0.20447,-7.77354 0.19484,-0.60814 0.69997,-1.79483 0.91754,-2.15551 0.15695,-0.26008 0.14301,-0.24676 -0.53096,0.51012 -0.71702,0.80518 -2.16736,1.9902 -3.06633,2.50543 -1.59069,0.91162 -3.18032,1.47858 -5.0384,1.7969 -0.81428,0.13952 -2.9014,0.19128 -3.78246,0.0938 -2.66701,-0.29494 -4.91679,-1.2603 -6.83399,-2.93235 -2.34629,-2.04623 -3.79412,-4.75777 -4.43265,-8.30164 -0.15547,-0.86271 -0.1304,-3.70381 0.0407,-4.61812 0.19727,-1.05417 0.58913,-2.28591 1.02891,-3.23418 0.20956,-0.45187 0.37126,-0.81197 0.35934,-0.80024 -0.0119,0.0111 -0.25311,0.28121 -0.53605,0.59887 -2.50576,2.81352 -6.36208,4.47463 -10.36196,4.46337 -1.94538,-0.006 -3.48894,-0.29627 -5.10437,-0.96158 -1.1529,-0.47485 -2.07148,-1.02388 -3.01357,-1.80121 -4.15988,-3.43222 -5.91474,-9.73487 -4.17208,-14.98431 0.2272,-0.68446 0.61467,-1.60086 0.86003,-2.03413 0.11791,-0.20817 0.11765,-0.20914 -0.0152,-0.0546 -1.6829,1.96119 -3.64068,3.30777 -6.03936,4.15395 -3.49338,1.23231 -7.52801,1.0506 -10.63746,-0.47908 -5.59759,-2.75372 -8.498692,-10.1192 -6.46384,-16.41074 0.18648,-0.57655 0.7075,-1.81601 0.8883,-2.11311 0.1076,-0.17683 0.0148,-0.089 -0.47175,0.44528 -0.65587,0.72058 -1.364072,1.36035 -2.018592,1.82354 -3.562013,2.52084 -8.006492,3.30696 -12.146905,2.14849 -4.787806,-1.33958 -8.214538,-5.51123 -9.034841,-10.99894 -0.181559,-1.21464 -0.124789,-3.54231 0.114049,-4.67636 0.216444,-1.02759 0.597411,-2.18643 0.983091,-2.99019 0.168796,-0.35182 0.299381,-0.646 0.290182,-0.65375 -0.009,-0.008 -0.26905,0.25883 -0.577501,0.59236 -2.028017,2.19336 -4.893515,3.68192 -8.091549,4.20334 -1.104528,0.18007 -3.009308,0.19881 -4.105458,0.0401 -3.94519,-0.57036 -7.040667,-2.65214 -9.084572,-6.10954 -1.415821,-2.39492 -2.158363,-5.72188 -1.890614,-8.47078 0.180436,-1.85252 0.748838,-3.80067 1.496155,-5.12788 l 0.111745,-0.19844 -0.13503,0.15923 c -2.58824,3.05246 -6.2254,4.80235 -10.348185,4.97862 -3.244463,0.1387 -6.365997,-0.88346 -8.698832,-2.84846 -2.353926,-1.9828 -3.997765,-4.97258 -4.557727,-8.28957 -0.169997,-1.00713 -0.226055,-2.93345 -0.112487,-3.86671 0.19275,-1.58382 0.560633,-2.90088 1.176894,-4.21329 0.189116,-0.40273 0.31736,-0.70594 0.284956,-0.67381 -0.03264,0.0319 -0.262423,0.28782 -0.511242,0.56817 -0.603828,0.68035 -1.229998,1.24007 -2.014003,1.8003 -4.042301,2.88848 -9.550827,3.47051 -13.918327,1.47058 -4.409352,-2.01911 -7.36075,-6.95363 -7.346886,-12.2835 0.004,-1.68551 0.163241,-2.75791 0.622588,-4.2033 0.219227,-0.68967 0.656962,-1.73448 0.876781,-2.09254 0.176813,-0.288 0.126952,-0.30086 -0.09299,-0.0241 -0.560522,0.70564 -1.612295,1.68549 -2.4253706,2.25951 -1.8701938,1.32033 -3.73306,2.06914 -6.2090535,2.49577 -0.9089247,0.15662 -3.20345958,0.16275 -4.15207554,0.0109 -1.20107836,-0.19202 -2.02845826,-0.42622 -3.12348646,-0.88411 -1.2320806,-0.51516 -1.9980968,-0.97789 -2.9959139,-1.80966 -4.106508,-3.42327 -5.845666,-9.63252 -4.157691,-14.84407 0.209618,-0.64722 0.664,-1.72793 0.8903951,-2.11769 0.1863037,-0.32083 0.191449,-0.32545 -0.5022521,0.45352 -1.403799,1.57638 -3.554264,2.96958 -5.685249,3.68329 -1.486385,0.49778 -2.641636,0.701 -4.27183,0.75143 -3.926289,0.12145 -7.436818,-1.31696 -9.815711,-4.02191 -1.749787,-1.98927 -2.834582,-4.2971 -3.333111,-7.09066 -0.16406,-0.91929 -0.223899,-2.98241 -0.113599,-3.91536 0.217447,-1.83916 0.801359,-3.64075 1.639555,-5.05866 l 0.309507,-0.52352 211.64107,0 211.64107,0 0.30921,0.52352 c 0.83817,1.41791 1.4221,3.2195 1.63953,5.05866 0.11049,0.93295 0.0504,2.99607 -0.11345,3.91536 -0.49853,2.79356 -1.58332,5.10139 -3.33314,7.09108 -2.37892,2.70495 -5.88943,4.14337 -9.81573,4.02191 -1.63021,-0.0505 -2.78544,-0.25362 -4.27184,-0.75143 -2.13098,-0.7137 -4.28149,-2.1069 -5.68524,-3.68328 -0.69372,-0.77898 -0.68857,-0.77435 -0.50226,-0.45353 0.0823,0.14118 0.27399,0.54547 0.42625,0.89842 1.36828,3.16856 1.46605,6.76771 0.2777,10.21312 -0.79913,2.31654 -2.18986,4.36538 -3.97106,5.85023 -0.99782,0.83176 -1.76387,1.29449 -2.99593,1.80965 -1.09497,0.45789 -1.92241,0.69207 -3.12358,0.88411 -0.94857,0.15168 -3.24315,0.14556 -4.15205,-0.0109 -2.47602,-0.42662 -4.33885,-1.17543 -6.20905,-2.49576 -0.81307,-0.57402 -1.8649,-1.55387 -2.42537,-2.25951 -0.21987,-0.27683 -0.26954,-0.26397 -0.0931,0.0241 0.21948,0.35806 0.65757,1.40287 0.87676,2.09254 0.45937,1.44539 0.61823,2.5178 0.62257,4.2033 0.0148,5.32987 -2.93749,10.26438 -7.34689,12.2835 -1.82527,0.83584 -3.94558,1.24987 -5.99928,1.17152 -3.9207,-0.14959 -7.57267,-1.78287 -9.93306,-4.4424 -0.24915,-0.28039 -0.47886,-0.53603 -0.51123,-0.56817 -0.0333,-0.0319 0.096,0.27106 0.2851,0.67381 0.61628,1.31241 0.98419,2.62947 1.17694,4.21329 0.11345,0.93326 0.0574,2.85958 -0.11235,3.86672 -0.77409,4.58529 -3.54923,8.37394 -7.34923,10.03319 -0.94391,0.41221 -1.39452,0.56251 -2.33109,0.77768 -4.07189,0.9355 -8.68013,-0.11008 -11.92888,-2.70663 -0.59876,-0.47855 -1.4828,-1.34014 -1.99558,-1.94484 l -0.13496,-0.15923 0.11159,0.19844 c 0.23099,0.41016 0.66121,1.4293 0.87798,2.07967 1.21461,3.64358 0.71624,8.15501 -1.27245,11.51899 -2.04391,3.4574 -5.13939,5.53918 -9.08455,6.10954 -1.09619,0.15845 -3.00095,0.13978 -4.10546,-0.0402 -3.19807,-0.52142 -6.06355,-2.00998 -8.09155,-4.20334 -0.3081,-0.33351 -0.56835,-0.60013 -0.57752,-0.59236 -0.0111,0.008 0.1216,0.30196 0.29029,0.65375 0.38567,0.80376 0.76669,1.96259 0.9831,2.99019 0.23913,1.13404 0.29549,3.46171 0.11382,4.67636 -0.62031,4.14982 -2.7737,7.64552 -5.93729,9.63846 -2.05753,1.29615 -4.99367,2.0265 -7.54976,1.87802 -3.85045,-0.22365 -7.26838,-1.80348 -9.71325,-4.48958 -0.48635,-0.53431 -0.57938,-0.62211 -0.47175,-0.44527 0.18056,0.29713 0.70184,1.53656 0.88829,2.11311 0.89731,2.77442 0.8527,6.01792 -0.12235,8.87601 -1.32393,3.88197 -4.02358,6.75565 -7.56026,8.04775 -4.15886,1.51937 -9.23585,0.79344 -12.9235,-1.84795 -0.92276,-0.66094 -1.74703,-1.42184 -2.53485,-2.33994 -0.13266,-0.15463 -0.13296,-0.15367 -0.0152,0.0546 0.24537,0.43328 0.63286,1.34967 0.86005,2.03413 1.74265,5.24945 -0.0122,11.55209 -4.17207,14.98432 -0.9421,0.77732 -1.86067,1.32634 -3.01358,1.8012 -1.61542,0.66535 -3.15898,0.95613 -5.10438,0.96159 -3.99986,0.0107 -7.85619,-1.64986 -10.36193,-4.46338 -0.28296,-0.31763 -0.52416,-0.58713 -0.53607,-0.59887 -0.0118,-0.0111 0.14979,0.34841 0.35934,0.80023 0.43978,0.94828 0.83166,2.18002 1.02892,3.23418 0.1711,0.91432 0.19619,3.75541 0.0407,4.61812 -0.63854,3.54388 -2.08636,6.25542 -4.43265,8.30164 -1.9172,1.67206 -4.167,2.6374 -6.83399,2.93236 -0.88107,0.0974 -2.96819,0.0457 -3.78246,-0.0938 -1.8581,-0.3183 -3.44773,-0.88527 -5.0384,-1.7969 -0.89898,-0.51523 -2.34931,-1.70025 -3.06633,-2.50543 -0.67397,-0.75685 -0.68792,-0.77023 -0.53099,-0.51011 0.0661,0.1096 0.25653,0.505 0.42321,0.87875 1.23362,2.76644 1.47528,5.89599 0.6988,9.05029 -0.74494,3.02631 -2.48037,5.72755 -4.67823,7.28179 -1.8189,1.28623 -3.84928,2.11076 -6.12404,2.48687 -0.57537,0.0951 -2.49395,0.17351 -2.95292,0.12068 z"
       id="path4104"
       inkscape:connector-curvature="0" />
  </g>
</svg>
