<?xml version="1.0" encoding="UTF-8" standalone="no"?>
<!-- Created with Notepad -->
<!-- (PD) December 16, 2005 - _Crotalus horridus_  -->
<svg
   xmlns:dc="http://purl.org/dc/elements/1.1/"
   xmlns:cc="http://web.resource.org/cc/"
   xmlns:rdf="http://www.w3.org/1999/02/22-rdf-syntax-ns#"
   xmlns:svg="http://www.w3.org/2000/svg"
   xmlns="http://www.w3.org/2000/svg"
   xmlns:sodipodi="http://sodipodi.sourceforge.net/DTD/sodipodi-0.dtd"
   xmlns:inkscape="http://www.inkscape.org/namespaces/inkscape"
   version="1.0"
   width="275"
   height="175"
   id="Confederate Battle Flag"
   sodipodi:version="0.32"
   inkscape:version="0.44"
   sodipodi:docname="Flag of Potchefstroom.svg"
   sodipodi:docbase="C:\flags">
  <metadata
     id="metadata12114">
    <rdf:RDF>
      <cc:Work
         rdf:about="">
        <dc:format>image/svg+xml</dc:format>
        <dc:type
           rdf:resource="http://purl.org/dc/dcmitype/StillImage" />
      </cc:Work>
    </rdf:RDF>
  </metadata>
  <sodipodi:namedview
     inkscape:window-height="579"
     inkscape:window-width="847"
     inkscape:pageshadow="2"
     inkscape:pageopacity="0.0"
     guidetolerance="10.0"
     gridtolerance="10.0"
     objecttolerance="10.0"
     borderopacity="1.0"
     bordercolor="#666666"
     pagecolor="#ffffff"
     id="base"
     inkscape:zoom="2.1542857"
     inkscape:cx="137.5"
     inkscape:cy="87.5"
     inkscape:window-x="455"
     inkscape:window-y="202"
     inkscape:current-layer="Confederate Battle Flag" />
  <rect
     style="fill:#ae1c28;fill-opacity:1"
     x="0"
     y="0"
     width="275"
     height="175"
     id="Blue Saltire" />
  <path
     style="fill:#FFFFFF"
     d="M 20,0 L 255,0 L 137.5,70 z "
     id="White Saltire Border - Top" />
  <path
     style="fill:#FFFFFF"
     d="M 20,175 L 255,175 L 137.5,105 z "
     id="White Saltire Border - Bottom" />
  <path
     style="fill:#FFFFFF"
     d="M 0,20 L 0,155 L 110,87.5 z "
     id="White Saltire Border - Left" />
  <path
     style="fill:#FFFFFF"
     d="M 275,20 L 275,155 L 165,87.5 z "
     id="White Saltire Border - Right" />
  <path
     style="fill:#21468b;fill-opacity:1"
     d="M 30,0 L 245,0 L 137.5,65 z "
     id="Red Field - Top" />
  <path
     style="fill:#21468b;fill-opacity:1"
     d="M 30,175 L 245,175 L 137.5,110 z "
     id="Red Field - Bottom" />
  <path
     style="fill:#21468b;fill-opacity:1"
     d="M 0,25 L 0,150 L 100,87.5 z "
     id="Red Field - Left" />
  <path
     style="fill:#21468b;fill-opacity:1"
     d="M 275,25 L 275,150 L 175,87.5 z "
     id="Red Field - Right" />
  <defs
     id="defs12084">
    <path
       style="fill:#FFFFFF"
       d="M 10,0 L 12.33,7.66 L 20,7.66 L 13.83,12.33 L 16.16,20 L 10,15.33 L 3.83,20 L 6.16,12.33 L 0,7.66 L 7.66,7.66 z"
       id="Star" />
  </defs>
</svg>
